<?xml version="1.0" encoding="UTF-8" standalone="no"?>
<!DOCTYPE svg PUBLIC "-//W3C//DTD SVG 1.1//EN"
 "http://www.w3.org/Graphics/SVG/1.1/DTD/svg11.dtd">
<!-- Generated by graphviz version 2.40.1 (0)
 -->
<!-- Title: snakemake_dag Pages: 1 -->
<svg width="1286pt" height="836pt"
 viewBox="0.00 0.00 1285.50 836.00" xmlns="http://www.w3.org/2000/svg" xmlns:xlink="http://www.w3.org/1999/xlink">
<g id="graph0" class="graph" transform="scale(1 1) rotate(0) translate(4 832)">
<title>snakemake_dag</title>
<polygon fill="#ffffff" stroke="transparent" points="-4,4 -4,-832 1281.5,-832 1281.5,4 -4,4"/>
<!-- 0 -->
<g id="node1" class="node">
<title>0</title>
<path fill="none" stroke="#d88556" stroke-width="2" d="M658.5,-36C658.5,-36 628.5,-36 628.5,-36 622.5,-36 616.5,-30 616.5,-24 616.5,-24 616.5,-12 616.5,-12 616.5,-6 622.5,0 628.5,0 628.5,0 658.5,0 658.5,0 664.5,0 670.5,-6 670.5,-12 670.5,-12 670.5,-24 670.5,-24 670.5,-30 664.5,-36 658.5,-36"/>
<text text-anchor="middle" x="643.5" y="-15.5" font-family="sans" font-size="10.00" fill="#000000">all</text>
</g>
<!-- 1 -->
<g id="node2" class="node">
<title>1</title>
<path fill="none" stroke="#d8c356" stroke-width="2" d="M497,-396C497,-396 440,-396 440,-396 434,-396 428,-390 428,-384 428,-384 428,-372 428,-372 428,-366 434,-360 440,-360 440,-360 497,-360 497,-360 503,-360 509,-366 509,-372 509,-372 509,-384 509,-384 509,-390 503,-396 497,-396"/>
<text text-anchor="middle" x="468.5" y="-375.5" font-family="sans" font-size="10.00" fill="#000000">plotASVLength</text>
</g>
<!-- 1&#45;&gt;0 -->
<g id="edge5" class="edge">
<title>1&#45;&gt;0</title>
<path fill="none" stroke="#c0c0c0" stroke-width="2" d="M448.9144,-359.6065C425.9459,-336.7582 388.7027,-295.4528 370.5,-252 339.5823,-178.1945 311.0871,-129.7284 366.5,-72 399.0281,-38.1127 538.2239,-24.6946 606.0527,-20.0936"/>
<polygon fill="#c0c0c0" stroke="#c0c0c0" stroke-width="2" points="606.5464,-23.569 616.2988,-19.4291 606.0933,-16.5837 606.5464,-23.569"/>
</g>
<!-- 27 -->
<g id="node28" class="node">
<title>27</title>
<path fill="none" stroke="#afd856" stroke-width="2" d="M264,-324C264,-324 231,-324 231,-324 225,-324 219,-318 219,-312 219,-312 219,-300 219,-300 219,-294 225,-288 231,-288 231,-288 264,-288 264,-288 270,-288 276,-294 276,-300 276,-300 276,-312 276,-312 276,-318 270,-324 264,-324"/>
<text text-anchor="middle" x="247.5" y="-303.5" font-family="sans" font-size="10.00" fill="#000000">qc_report</text>
</g>
<!-- 1&#45;&gt;27 -->
<g id="edge55" class="edge">
<title>1&#45;&gt;27</title>
<path fill="none" stroke="#c0c0c0" stroke-width="2" d="M427.9239,-363.1188C424.7443,-362.0365 421.5753,-360.9846 418.5,-360 362.2183,-341.98 346.305,-343.446 290.5,-324 289.0671,-323.5007 287.6134,-322.9779 286.1496,-322.4379"/>
<polygon fill="#c0c0c0" stroke="#c0c0c0" stroke-width="2" points="287.0467,-319.0322 276.4575,-318.6873 284.5204,-325.5604 287.0467,-319.0322"/>
</g>
<!-- 2 -->
<g id="node3" class="node">
<title>2</title>
<path fill="none" stroke="#56d8b9" stroke-width="2" d="M627,-468C627,-468 560,-468 560,-468 554,-468 548,-462 548,-456 548,-456 548,-444 548,-444 548,-438 554,-432 560,-432 560,-432 627,-432 627,-432 633,-432 639,-438 639,-444 639,-444 639,-456 639,-456 639,-462 633,-468 627,-468"/>
<text text-anchor="middle" x="593.5" y="-447.5" font-family="sans" font-size="10.00" fill="#000000">removeChimeras</text>
</g>
<!-- 2&#45;&gt;1 -->
<g id="edge24" class="edge">
<title>2&#45;&gt;1</title>
<path fill="none" stroke="#c0c0c0" stroke-width="2" d="M561.9572,-431.8314C545.8209,-422.5368 526.0014,-411.1208 508.7728,-401.1971"/>
<polygon fill="#c0c0c0" stroke="#c0c0c0" stroke-width="2" points="510.445,-398.1212 500.0327,-396.1628 506.9511,-404.187 510.445,-398.1212"/>
</g>
<!-- 11 -->
<g id="node12" class="node">
<title>11</title>
<path fill="none" stroke="#56b1d8" stroke-width="2" d="M1022.5,-252C1022.5,-252 992.5,-252 992.5,-252 986.5,-252 980.5,-246 980.5,-240 980.5,-240 980.5,-228 980.5,-228 980.5,-222 986.5,-216 992.5,-216 992.5,-216 1022.5,-216 1022.5,-216 1028.5,-216 1034.5,-222 1034.5,-228 1034.5,-228 1034.5,-240 1034.5,-240 1034.5,-246 1028.5,-252 1022.5,-252"/>
<text text-anchor="middle" x="1007.5" y="-231.5" font-family="sans" font-size="10.00" fill="#000000">IDtaxa</text>
</g>
<!-- 2&#45;&gt;11 -->
<g id="edge34" class="edge">
<title>2&#45;&gt;11</title>
<path fill="none" stroke="#c0c0c0" stroke-width="2" d="M639.0957,-432.267C663.7958,-422.2869 694.6657,-409.2048 721.5,-396 813.9468,-350.5082 918.2565,-288.6017 971.7091,-256.0641"/>
<polygon fill="#c0c0c0" stroke="#c0c0c0" stroke-width="2" points="973.751,-258.9182 980.4632,-250.7208 970.1041,-252.9433 973.751,-258.9182"/>
</g>
<!-- 12 -->
<g id="node13" class="node">
<title>12</title>
<path fill="none" stroke="#d89556" stroke-width="2" d="M572,-396C572,-396 539,-396 539,-396 533,-396 527,-390 527,-384 527,-384 527,-372 527,-372 527,-366 533,-360 539,-360 539,-360 572,-360 572,-360 578,-360 584,-366 584,-372 584,-372 584,-384 584,-384 584,-390 578,-396 572,-396"/>
<text text-anchor="middle" x="555.5" y="-375.5" font-family="sans" font-size="10.00" fill="#000000">RDPtaxa</text>
</g>
<!-- 2&#45;&gt;12 -->
<g id="edge35" class="edge">
<title>2&#45;&gt;12</title>
<path fill="none" stroke="#c0c0c0" stroke-width="2" d="M583.911,-431.8314C579.6683,-423.7925 574.5879,-414.1666 569.904,-405.2918"/>
<polygon fill="#c0c0c0" stroke="#c0c0c0" stroke-width="2" points="572.9811,-403.6235 565.2181,-396.4133 566.7904,-406.8908 572.9811,-403.6235"/>
</g>
<!-- 13 -->
<g id="node14" class="node">
<title>13</title>
<path fill="none" stroke="#bed856" stroke-width="2" d="M700.5,-396C700.5,-396 652.5,-396 652.5,-396 646.5,-396 640.5,-390 640.5,-384 640.5,-384 640.5,-372 640.5,-372 640.5,-366 646.5,-360 652.5,-360 652.5,-360 700.5,-360 700.5,-360 706.5,-360 712.5,-366 712.5,-372 712.5,-372 712.5,-384 712.5,-384 712.5,-390 706.5,-396 700.5,-396"/>
<text text-anchor="middle" x="676.5" y="-375.5" font-family="sans" font-size="10.00" fill="#000000">multipleAlign</text>
</g>
<!-- 2&#45;&gt;13 -->
<g id="edge36" class="edge">
<title>2&#45;&gt;13</title>
<path fill="none" stroke="#c0c0c0" stroke-width="2" d="M614.4444,-431.8314C624.5691,-423.0485 636.8777,-412.3712 647.8548,-402.8489"/>
<polygon fill="#c0c0c0" stroke="#c0c0c0" stroke-width="2" points="650.3019,-405.3595 655.5623,-396.1628 645.7149,-400.0718 650.3019,-405.3595"/>
</g>
<!-- 15 -->
<g id="node16" class="node">
<title>15</title>
<path fill="none" stroke="#80d856" stroke-width="2" d="M397.5,-396C397.5,-396 313.5,-396 313.5,-396 307.5,-396 301.5,-390 301.5,-384 301.5,-384 301.5,-372 301.5,-372 301.5,-366 307.5,-360 313.5,-360 313.5,-360 397.5,-360 397.5,-360 403.5,-360 409.5,-366 409.5,-372 409.5,-372 409.5,-384 409.5,-384 409.5,-390 403.5,-396 397.5,-396"/>
<text text-anchor="middle" x="355.5" y="-375.5" font-family="sans" font-size="10.00" fill="#000000">combineReadCounts</text>
</g>
<!-- 2&#45;&gt;15 -->
<g id="edge41" class="edge">
<title>2&#45;&gt;15</title>
<path fill="none" stroke="#c0c0c0" stroke-width="2" d="M547.8928,-436.2029C511.4822,-425.1879 460.0321,-409.6232 419.4976,-397.3606"/>
<polygon fill="#c0c0c0" stroke="#c0c0c0" stroke-width="2" points="420.2933,-393.9447 409.7082,-394.3991 418.2664,-400.6449 420.2933,-393.9447"/>
</g>
<!-- 28 -->
<g id="node29" class="node">
<title>28</title>
<path fill="none" stroke="#9fd856" stroke-width="2" d="M566.5,-324C566.5,-324 474.5,-324 474.5,-324 468.5,-324 462.5,-318 462.5,-312 462.5,-312 462.5,-300 462.5,-300 462.5,-294 468.5,-288 474.5,-288 474.5,-288 566.5,-288 566.5,-288 572.5,-288 578.5,-294 578.5,-300 578.5,-300 578.5,-312 578.5,-312 578.5,-318 572.5,-324 566.5,-324"/>
<text text-anchor="middle" x="520.5" y="-303.5" font-family="sans" font-size="10.00" fill="#000000">combining_annotations</text>
</g>
<!-- 2&#45;&gt;28 -->
<g id="edge58" class="edge">
<title>2&#45;&gt;28</title>
<path fill="none" stroke="#c0c0c0" stroke-width="2" d="M598.109,-431.6503C601.8681,-412.6395 604.8948,-382.6027 593.5,-360 589.4284,-351.9236 574.3397,-340.2378 558.9286,-329.8011"/>
<polygon fill="#c0c0c0" stroke="#c0c0c0" stroke-width="2" points="560.6734,-326.7589 550.4016,-324.1623 556.8122,-332.5977 560.6734,-326.7589"/>
</g>
<!-- 3 -->
<g id="node4" class="node">
<title>3</title>
<path fill="none" stroke="#70d856" stroke-width="2" d="M624,-540C624,-540 563,-540 563,-540 557,-540 551,-534 551,-528 551,-528 551,-516 551,-516 551,-510 557,-504 563,-504 563,-504 624,-504 624,-504 630,-504 636,-510 636,-516 636,-516 636,-528 636,-528 636,-534 630,-540 624,-540"/>
<text text-anchor="middle" x="593.5" y="-519.5" font-family="sans" font-size="10.00" fill="#000000">generateSeqtab</text>
</g>
<!-- 3&#45;&gt;2 -->
<g id="edge25" class="edge">
<title>3&#45;&gt;2</title>
<path fill="none" stroke="#c0c0c0" stroke-width="2" d="M593.5,-503.8314C593.5,-496.131 593.5,-486.9743 593.5,-478.4166"/>
<polygon fill="#c0c0c0" stroke="#c0c0c0" stroke-width="2" points="597.0001,-478.4132 593.5,-468.4133 590.0001,-478.4133 597.0001,-478.4132"/>
</g>
<!-- 3&#45;&gt;15 -->
<g id="edge39" class="edge">
<title>3&#45;&gt;15</title>
<path fill="none" stroke="#c0c0c0" stroke-width="2" d="M565.0393,-503.991C535.9121,-485.6414 489.2683,-456.4809 448.5,-432 431.3484,-421.7006 412.261,-410.5622 395.8635,-401.0917"/>
<polygon fill="#c0c0c0" stroke="#c0c0c0" stroke-width="2" points="397.4717,-397.9789 387.0599,-396.0178 393.9762,-404.0437 397.4717,-397.9789"/>
</g>
<!-- 4 -->
<g id="node5" class="node">
<title>4</title>
<path fill="none" stroke="#56c1d8" stroke-width="2" d="M685,-684C685,-684 644,-684 644,-684 638,-684 632,-678 632,-672 632,-672 632,-660 632,-660 632,-654 638,-648 644,-648 644,-648 685,-648 685,-648 691,-648 697,-654 697,-660 697,-660 697,-672 697,-672 697,-678 691,-684 685,-684"/>
<text text-anchor="middle" x="664.5" y="-663.5" font-family="sans" font-size="10.00" fill="#000000">dada2Filter</text>
</g>
<!-- 4&#45;&gt;0 -->
<g id="edge17" class="edge">
<title>4&#45;&gt;0</title>
<path fill="none" stroke="#c0c0c0" stroke-width="2" d="M697.1185,-661.6443C793.6981,-647.8445 1071.5,-601.2617 1071.5,-522 1071.5,-522 1071.5,-522 1071.5,-450 1071.5,-278.1861 1287.7057,-178.0161 1152.5,-72 1115.4945,-42.9837 791.6966,-25.0331 680.6705,-19.6866"/>
<polygon fill="#c0c0c0" stroke="#c0c0c0" stroke-width="2" points="680.7619,-16.187 670.6071,-19.2086 680.4297,-23.1792 680.7619,-16.187"/>
</g>
<!-- 4&#45;&gt;3 -->
<g id="edge26" class="edge">
<title>4&#45;&gt;3</title>
<path fill="none" stroke="#c0c0c0" stroke-width="2" d="M642.4937,-647.8039C632.2172,-638.1773 620.6914,-625.5559 613.5,-612 603.3418,-592.8518 598.3342,-568.7772 595.8705,-550.3465"/>
<polygon fill="#c0c0c0" stroke="#c0c0c0" stroke-width="2" points="599.3255,-549.7558 594.6942,-540.2269 592.3723,-550.5642 599.3255,-549.7558"/>
</g>
<!-- 7 -->
<g id="node8" class="node">
<title>7</title>
<path fill="none" stroke="#d8b456" stroke-width="2" d="M695,-612C695,-612 634,-612 634,-612 628,-612 622,-606 622,-600 622,-600 622,-588 622,-588 622,-582 628,-576 634,-576 634,-576 695,-576 695,-576 701,-576 707,-582 707,-588 707,-588 707,-600 707,-600 707,-606 701,-612 695,-612"/>
<text text-anchor="middle" x="664.5" y="-591.5" font-family="sans" font-size="10.00" fill="#000000">learnErrorRates</text>
</g>
<!-- 4&#45;&gt;7 -->
<g id="edge30" class="edge">
<title>4&#45;&gt;7</title>
<path fill="none" stroke="#c0c0c0" stroke-width="2" d="M664.5,-647.8314C664.5,-640.131 664.5,-630.9743 664.5,-622.4166"/>
<polygon fill="#c0c0c0" stroke="#c0c0c0" stroke-width="2" points="668.0001,-622.4132 664.5,-612.4133 661.0001,-622.4133 668.0001,-622.4132"/>
</g>
<!-- 10 -->
<g id="node11" class="node">
<title>10</title>
<path fill="none" stroke="#5663d8" stroke-width="2" d="M271.5,-396C271.5,-396 157.5,-396 157.5,-396 151.5,-396 145.5,-390 145.5,-384 145.5,-384 145.5,-372 145.5,-372 145.5,-366 151.5,-360 157.5,-360 157.5,-360 271.5,-360 271.5,-360 277.5,-360 283.5,-366 283.5,-372 283.5,-372 283.5,-384 283.5,-384 283.5,-390 277.5,-396 271.5,-396"/>
<text text-anchor="middle" x="214.5" y="-375.5" font-family="sans" font-size="10.00" fill="#000000">plotQualityProfileAfterdada2</text>
</g>
<!-- 4&#45;&gt;10 -->
<g id="edge33" class="edge">
<title>4&#45;&gt;10</title>
<path fill="none" stroke="#c0c0c0" stroke-width="2" d="M631.966,-662.3376C564.034,-653.1751 405.1708,-623.6569 305.5,-540 262.4341,-503.8534 235.8278,-441.833 223.2312,-405.9261"/>
<polygon fill="#c0c0c0" stroke="#c0c0c0" stroke-width="2" points="226.429,-404.4565 219.9081,-396.1061 219.7983,-406.7003 226.429,-404.4565"/>
</g>
<!-- 4&#45;&gt;15 -->
<g id="edge40" class="edge">
<title>4&#45;&gt;15</title>
<path fill="none" stroke="#c0c0c0" stroke-width="2" d="M640.4253,-647.822C627.2,-637.6044 610.6558,-624.4382 596.5,-612 514.2578,-539.7365 423.0366,-447.6232 380.231,-403.6321"/>
<polygon fill="#c0c0c0" stroke="#c0c0c0" stroke-width="2" points="382.534,-400.9796 373.0567,-396.2434 377.5119,-405.856 382.534,-400.9796"/>
</g>
<!-- 24 -->
<g id="node25" class="node">
<title>24</title>
<path fill="none" stroke="#56d0d8" stroke-width="2" d="M981,-180C981,-180 896,-180 896,-180 890,-180 884,-174 884,-168 884,-168 884,-156 884,-156 884,-150 890,-144 896,-144 896,-144 981,-144 981,-144 987,-144 993,-150 993,-156 993,-156 993,-168 993,-168 993,-174 987,-180 981,-180"/>
<text text-anchor="middle" x="938.5" y="-159.5" font-family="sans" font-size="10.00" fill="#000000">seqkit_counts_dada2</text>
</g>
<!-- 4&#45;&gt;24 -->
<g id="edge48" class="edge">
<title>4&#45;&gt;24</title>
<path fill="none" stroke="#c0c0c0" stroke-width="2" d="M697.1889,-663.6925C769.2667,-656.6484 935.5,-628.8229 935.5,-522 935.5,-522 935.5,-522 935.5,-306 935.5,-265.8673 936.6792,-219.4566 937.5589,-190.414"/>
<polygon fill="#c0c0c0" stroke="#c0c0c0" stroke-width="2" points="941.0645,-190.2872 937.8784,-180.1828 934.0679,-190.0687 941.0645,-190.2872"/>
</g>
<!-- 5 -->
<g id="node6" class="node">
<title>5</title>
<path fill="none" stroke="#5682d8" stroke-width="2" d="M1131.5,-756C1131.5,-756 1087.5,-756 1087.5,-756 1081.5,-756 1075.5,-750 1075.5,-744 1075.5,-744 1075.5,-732 1075.5,-732 1075.5,-726 1081.5,-720 1087.5,-720 1087.5,-720 1131.5,-720 1131.5,-720 1137.5,-720 1143.5,-726 1143.5,-732 1143.5,-732 1143.5,-744 1143.5,-744 1143.5,-750 1137.5,-756 1131.5,-756"/>
<text text-anchor="middle" x="1109.5" y="-735.5" font-family="sans" font-size="10.00" fill="#000000">cutAdaptQc</text>
</g>
<!-- 5&#45;&gt;4 -->
<g id="edge28" class="edge">
<title>5&#45;&gt;4</title>
<path fill="none" stroke="#c0c0c0" stroke-width="2" d="M1075.3205,-732.4698C995.1532,-719.4989 795.178,-687.1434 707.1919,-672.9075"/>
<polygon fill="#c0c0c0" stroke="#c0c0c0" stroke-width="2" points="707.7125,-669.4463 697.2819,-671.304 706.5944,-676.3564 707.7125,-669.4463"/>
</g>
<!-- 8 -->
<g id="node9" class="node">
<title>8</title>
<path fill="none" stroke="#5692d8" stroke-width="2" d="M115,-396C115,-396 12,-396 12,-396 6,-396 0,-390 0,-384 0,-384 0,-372 0,-372 0,-366 6,-360 12,-360 12,-360 115,-360 115,-360 121,-360 127,-366 127,-372 127,-372 127,-384 127,-384 127,-390 121,-396 115,-396"/>
<text text-anchor="middle" x="63.5" y="-375.5" font-family="sans" font-size="10.00" fill="#000000">plotQualityProfileAfterQC</text>
</g>
<!-- 5&#45;&gt;8 -->
<g id="edge31" class="edge">
<title>5&#45;&gt;8</title>
<path fill="none" stroke="#c0c0c0" stroke-width="2" d="M1075.4564,-736.7125C901.5506,-729.695 120.5,-692.6849 120.5,-594 120.5,-594 120.5,-594 120.5,-522 120.5,-478.7597 98.0055,-433.0187 81.2788,-404.9832"/>
<polygon fill="#c0c0c0" stroke="#c0c0c0" stroke-width="2" points="84.0874,-402.8688 75.8682,-396.1834 78.1244,-406.5353 84.0874,-402.8688"/>
</g>
<!-- 19 -->
<g id="node20" class="node">
<title>19</title>
<path fill="none" stroke="#8fd856" stroke-width="2" d="M1187,-684C1187,-684 1154,-684 1154,-684 1148,-684 1142,-678 1142,-672 1142,-672 1142,-660 1142,-660 1142,-654 1148,-648 1154,-648 1154,-648 1187,-648 1187,-648 1193,-648 1199,-654 1199,-660 1199,-660 1199,-672 1199,-672 1199,-678 1193,-684 1187,-684"/>
<text text-anchor="middle" x="1170.5" y="-663.5" font-family="sans" font-size="10.00" fill="#000000">fastqcFilt</text>
</g>
<!-- 5&#45;&gt;19 -->
<g id="edge44" class="edge">
<title>5&#45;&gt;19</title>
<path fill="none" stroke="#c0c0c0" stroke-width="2" d="M1124.8929,-719.8314C1131.9904,-711.454 1140.548,-701.3531 1148.324,-692.1749"/>
<polygon fill="#c0c0c0" stroke="#c0c0c0" stroke-width="2" points="1151.1061,-694.3056 1154.8999,-684.4133 1145.7652,-689.7807 1151.1061,-694.3056"/>
</g>
<!-- 25 -->
<g id="node26" class="node">
<title>25</title>
<path fill="none" stroke="#56d89a" stroke-width="2" d="M1157.5,-180C1157.5,-180 1061.5,-180 1061.5,-180 1055.5,-180 1049.5,-174 1049.5,-168 1049.5,-168 1049.5,-156 1049.5,-156 1049.5,-150 1055.5,-144 1061.5,-144 1061.5,-144 1157.5,-144 1157.5,-144 1163.5,-144 1169.5,-150 1169.5,-156 1169.5,-156 1169.5,-168 1169.5,-168 1169.5,-174 1163.5,-180 1157.5,-180"/>
<text text-anchor="middle" x="1109.5" y="-159.5" font-family="sans" font-size="10.00" fill="#000000">seqkit_counts_cutadapt</text>
</g>
<!-- 5&#45;&gt;25 -->
<g id="edge50" class="edge">
<title>5&#45;&gt;25</title>
<path fill="none" stroke="#c0c0c0" stroke-width="2" d="M1109.5,-719.8146C1109.5,-692.4983 1109.5,-639.25 1109.5,-594 1109.5,-594 1109.5,-594 1109.5,-306 1109.5,-265.876 1109.5,-219.4631 1109.5,-190.4177"/>
<polygon fill="#c0c0c0" stroke="#c0c0c0" stroke-width="2" points="1113.0001,-190.1853 1109.5,-180.1854 1106.0001,-190.1854 1113.0001,-190.1853"/>
</g>
<!-- 6 -->
<g id="node7" class="node">
<title>6</title>
<path fill="none" stroke="#56d85b" stroke-width="2" d="M1190.5,-828C1190.5,-828 1158.5,-828 1158.5,-828 1152.5,-828 1146.5,-822 1146.5,-816 1146.5,-816 1146.5,-804 1146.5,-804 1146.5,-798 1152.5,-792 1158.5,-792 1158.5,-792 1190.5,-792 1190.5,-792 1196.5,-792 1202.5,-798 1202.5,-804 1202.5,-804 1202.5,-816 1202.5,-816 1202.5,-822 1196.5,-828 1190.5,-828"/>
<text text-anchor="middle" x="1174.5" y="-807.5" font-family="sans" font-size="10.00" fill="#000000">cutAdapt</text>
</g>
<!-- 6&#45;&gt;5 -->
<g id="edge29" class="edge">
<title>6&#45;&gt;5</title>
<path fill="none" stroke="#c0c0c0" stroke-width="2" d="M1158.0978,-791.8314C1150.4585,-783.3694 1141.2317,-773.1489 1132.8793,-763.8971"/>
<polygon fill="#c0c0c0" stroke="#c0c0c0" stroke-width="2" points="1135.4221,-761.4906 1126.1231,-756.4133 1130.2262,-766.1813 1135.4221,-761.4906"/>
</g>
<!-- 9 -->
<g id="node10" class="node">
<title>9</title>
<path fill="none" stroke="#56d8a9" stroke-width="2" d="M1237,-396C1237,-396 1150,-396 1150,-396 1144,-396 1138,-390 1138,-384 1138,-384 1138,-372 1138,-372 1138,-366 1144,-360 1150,-360 1150,-360 1237,-360 1237,-360 1243,-360 1249,-366 1249,-372 1249,-372 1249,-384 1249,-384 1249,-390 1243,-396 1237,-396"/>
<text text-anchor="middle" x="1193.5" y="-375.5" font-family="sans" font-size="10.00" fill="#000000">plotQualityProfileRaw</text>
</g>
<!-- 6&#45;&gt;9 -->
<g id="edge32" class="edge">
<title>6&#45;&gt;9</title>
<path fill="none" stroke="#c0c0c0" stroke-width="2" d="M1188.9256,-791.6392C1208.0751,-765.37 1239.5,-714.8235 1239.5,-666 1239.5,-666 1239.5,-666 1239.5,-522 1239.5,-479.7421 1221.3024,-433.6755 1207.7986,-405.3085"/>
<polygon fill="#c0c0c0" stroke="#c0c0c0" stroke-width="2" points="1210.8022,-403.4843 1203.2554,-396.0482 1204.5178,-406.5675 1210.8022,-403.4843"/>
</g>
<!-- 7&#45;&gt;3 -->
<g id="edge27" class="edge">
<title>7&#45;&gt;3</title>
<path fill="none" stroke="#c0c0c0" stroke-width="2" d="M646.5837,-575.8314C638.1558,-567.2848 627.959,-556.9443 618.764,-547.6198"/>
<polygon fill="#c0c0c0" stroke="#c0c0c0" stroke-width="2" points="621.1711,-545.0761 611.6575,-540.4133 616.1869,-549.9912 621.1711,-545.0761"/>
</g>
<!-- 8&#45;&gt;0 -->
<g id="edge20" class="edge">
<title>8&#45;&gt;0</title>
<path fill="none" stroke="#c0c0c0" stroke-width="2" d="M67.8512,-359.9379C74.0022,-332.7787 84.5,-279.7286 84.5,-234 84.5,-234 84.5,-234 84.5,-162 84.5,-109.646 114.3172,-96.6593 160.5,-72 237.7002,-30.7789 506.9322,-20.905 606.2914,-18.6423"/>
<polygon fill="#c0c0c0" stroke="#c0c0c0" stroke-width="2" points="606.5359,-22.1379 616.4585,-18.4241 606.3857,-15.1395 606.5359,-22.1379"/>
</g>
<!-- 8&#45;&gt;27 -->
<g id="edge52" class="edge">
<title>8&#45;&gt;27</title>
<path fill="none" stroke="#c0c0c0" stroke-width="2" d="M109.931,-359.8314C140.7301,-347.7795 180.6447,-332.1608 209.5408,-320.8536"/>
<polygon fill="#c0c0c0" stroke="#c0c0c0" stroke-width="2" points="210.8518,-324.0991 218.8889,-317.1957 208.301,-317.5804 210.8518,-324.0991"/>
</g>
<!-- 9&#45;&gt;0 -->
<g id="edge15" class="edge">
<title>9&#45;&gt;0</title>
<path fill="none" stroke="#c0c0c0" stroke-width="2" d="M1202.4071,-359.8553C1214.7358,-333.0234 1235.5,-280.875 1235.5,-234 1235.5,-234 1235.5,-234 1235.5,-162 1235.5,-120.6022 1243.0963,-98.7479 1211.5,-72 1171.0449,-37.7526 801.1762,-23.0244 681.0156,-19.1164"/>
<polygon fill="#c0c0c0" stroke="#c0c0c0" stroke-width="2" points="680.9406,-15.6123 670.8341,-18.7919 680.7175,-22.6088 680.9406,-15.6123"/>
</g>
<!-- 9&#45;&gt;27 -->
<g id="edge54" class="edge">
<title>9&#45;&gt;27</title>
<path fill="none" stroke="#c0c0c0" stroke-width="2" d="M1137.7813,-374.2076C1014.4409,-365.7526 709.0197,-344.4854 453.5,-324 395.2321,-319.3286 327.749,-313.3177 286.3453,-309.5611"/>
<polygon fill="#c0c0c0" stroke="#c0c0c0" stroke-width="2" points="286.4249,-306.054 276.149,-308.6337 285.7908,-313.0252 286.4249,-306.054"/>
</g>
<!-- 10&#45;&gt;0 -->
<g id="edge23" class="edge">
<title>10&#45;&gt;0</title>
<path fill="none" stroke="#c0c0c0" stroke-width="2" d="M201.0469,-359.9776C182.8122,-333.7117 152.5,-282.7216 152.5,-234 152.5,-234 152.5,-234 152.5,-162 152.5,-116.0242 165.2631,-97.5288 203.5,-72 236.733,-49.812 505.6278,-28.0848 605.9462,-20.6736"/>
<polygon fill="#c0c0c0" stroke="#c0c0c0" stroke-width="2" points="606.5035,-24.1422 616.2212,-19.9211 605.9922,-17.1609 606.5035,-24.1422"/>
</g>
<!-- 10&#45;&gt;27 -->
<g id="edge56" class="edge">
<title>10&#45;&gt;27</title>
<path fill="none" stroke="#c0c0c0" stroke-width="2" d="M222.8273,-359.8314C226.473,-351.8771 230.8309,-342.369 234.8627,-333.5723"/>
<polygon fill="#c0c0c0" stroke="#c0c0c0" stroke-width="2" points="238.0757,-334.9622 239.0606,-324.4133 231.7123,-332.0456 238.0757,-334.9622"/>
</g>
<!-- 11&#45;&gt;0 -->
<g id="edge18" class="edge">
<title>11&#45;&gt;0</title>
<path fill="none" stroke="#c0c0c0" stroke-width="2" d="M1011.3293,-215.8561C1015.979,-196.7444 1025.1642,-166.3758 1040.5,-144 1054.2093,-123.9974 1071.4987,-130.0912 1081.5,-108 1088.0989,-93.4242 1092.099,-83.9859 1081.5,-72 1055.0602,-42.1004 781.4687,-25.0981 680.59,-19.8069"/>
<polygon fill="#c0c0c0" stroke="#c0c0c0" stroke-width="2" points="680.7144,-16.3087 670.5474,-19.2891 680.3539,-23.2994 680.7144,-16.3087"/>
</g>
<!-- 12&#45;&gt;0 -->
<g id="edge3" class="edge">
<title>12&#45;&gt;0</title>
<path fill="none" stroke="#c0c0c0" stroke-width="2" d="M526.8004,-364.0717C498.5788,-350.1754 458.9489,-330.0472 453.5,-324 376.4317,-238.4688 321.1932,-161.5926 393.5,-72 419.7963,-39.4172 543.0228,-25.5349 606.0956,-20.4832"/>
<polygon fill="#c0c0c0" stroke="#c0c0c0" stroke-width="2" points="606.7044,-23.9469 616.4078,-19.6932 606.1696,-16.9674 606.7044,-23.9469"/>
</g>
<!-- 12&#45;&gt;28 -->
<g id="edge57" class="edge">
<title>12&#45;&gt;28</title>
<path fill="none" stroke="#c0c0c0" stroke-width="2" d="M546.668,-359.8314C542.8014,-351.8771 538.1794,-342.369 533.9032,-333.5723"/>
<polygon fill="#c0c0c0" stroke="#c0c0c0" stroke-width="2" points="536.9707,-331.8768 529.4509,-324.4133 530.6751,-334.9371 536.9707,-331.8768"/>
</g>
<!-- 13&#45;&gt;0 -->
<g id="edge8" class="edge">
<title>13&#45;&gt;0</title>
<path fill="none" stroke="#c0c0c0" stroke-width="2" d="M697.0055,-359.8496C706.7481,-350.143 717.7188,-337.4379 724.5,-324 742.9181,-287.5023 743.5,-274.8816 743.5,-234 743.5,-234 743.5,-234 743.5,-162 743.5,-118.4059 730.0969,-107.288 704.5,-72 696.702,-61.2497 686.4179,-51.1207 676.5204,-42.6035"/>
<polygon fill="#c0c0c0" stroke="#c0c0c0" stroke-width="2" points="678.653,-39.8251 668.7206,-36.1374 674.1854,-45.2141 678.653,-39.8251"/>
</g>
<!-- 14 -->
<g id="node15" class="node">
<title>14</title>
<path fill="none" stroke="#56d87b" stroke-width="2" d="M630.5,-252C630.5,-252 588.5,-252 588.5,-252 582.5,-252 576.5,-246 576.5,-240 576.5,-240 576.5,-228 576.5,-228 576.5,-222 582.5,-216 588.5,-216 588.5,-216 630.5,-216 630.5,-216 636.5,-216 642.5,-222 642.5,-228 642.5,-228 642.5,-240 642.5,-240 642.5,-246 636.5,-252 630.5,-252"/>
<text text-anchor="middle" x="609.5" y="-231.5" font-family="sans" font-size="10.00" fill="#000000">newickTree</text>
</g>
<!-- 13&#45;&gt;14 -->
<g id="edge37" class="edge">
<title>13&#45;&gt;14</title>
<path fill="none" stroke="#c0c0c0" stroke-width="2" d="M655.9945,-359.8496C646.2519,-350.143 635.2812,-337.4379 628.5,-324 618.757,-304.693 614.0051,-280.6276 611.6902,-262.2408"/>
<polygon fill="#c0c0c0" stroke="#c0c0c0" stroke-width="2" points="615.1534,-261.7115 610.5896,-252.15 608.1946,-262.4706 615.1534,-261.7115"/>
</g>
<!-- 29 -->
<g id="node30" class="node">
<title>29</title>
<path fill="none" stroke="#d8a456" stroke-width="2" d="M703.5,-324C703.5,-324 649.5,-324 649.5,-324 643.5,-324 637.5,-318 637.5,-312 637.5,-312 637.5,-300 637.5,-300 637.5,-294 643.5,-288 649.5,-288 649.5,-288 703.5,-288 703.5,-288 709.5,-288 715.5,-294 715.5,-300 715.5,-300 715.5,-312 715.5,-312 715.5,-318 709.5,-324 703.5,-324"/>
<text text-anchor="middle" x="676.5" y="-303.5" font-family="sans" font-size="10.00" fill="#000000">vsearchGTDB</text>
</g>
<!-- 13&#45;&gt;29 -->
<g id="edge59" class="edge">
<title>13&#45;&gt;29</title>
<path fill="none" stroke="#c0c0c0" stroke-width="2" d="M676.5,-359.8314C676.5,-352.131 676.5,-342.9743 676.5,-334.4166"/>
<polygon fill="#c0c0c0" stroke="#c0c0c0" stroke-width="2" points="680.0001,-334.4132 676.5,-324.4133 673.0001,-334.4133 680.0001,-334.4132"/>
</g>
<!-- 14&#45;&gt;0 -->
<g id="edge12" class="edge">
<title>14&#45;&gt;0</title>
<path fill="none" stroke="#c0c0c0" stroke-width="2" d="M604.1033,-215.8748C595.9336,-185.2457 583.1205,-121.7252 600.5,-72 604.0957,-61.7121 610.5628,-51.9193 617.4076,-43.568"/>
<polygon fill="#c0c0c0" stroke="#c0c0c0" stroke-width="2" points="620.0502,-45.863 624.0044,-36.0337 614.7836,-41.2517 620.0502,-45.863"/>
</g>
<!-- 15&#45;&gt;0 -->
<g id="edge11" class="edge">
<title>15&#45;&gt;0</title>
<path fill="none" stroke="#c0c0c0" stroke-width="2" d="M301.3623,-360.6213C262.8795,-347.805 216.9172,-331.3687 210.5,-324 183.5898,-293.0993 190.5,-274.9758 190.5,-234 190.5,-234 190.5,-234 190.5,-162 190.5,-113.1738 211.8446,-97.4721 253.5,-72 312.3496,-36.0138 520.8219,-23.2055 606.4103,-19.3964"/>
<polygon fill="#c0c0c0" stroke="#c0c0c0" stroke-width="2" points="606.6177,-22.8908 616.4587,-18.9657 606.3179,-15.8972 606.6177,-22.8908"/>
</g>
<!-- 15&#45;&gt;27 -->
<g id="edge53" class="edge">
<title>15&#45;&gt;27</title>
<path fill="none" stroke="#c0c0c0" stroke-width="2" d="M328.247,-359.8314C314.5611,-350.7074 297.8085,-339.539 283.1173,-329.7449"/>
<polygon fill="#c0c0c0" stroke="#c0c0c0" stroke-width="2" points="285.0062,-326.7977 274.7442,-324.1628 281.1233,-332.6221 285.0062,-326.7977"/>
</g>
<!-- 16 -->
<g id="node17" class="node">
<title>16</title>
<path fill="none" stroke="#d87556" stroke-width="2" d="M382.5,-468C382.5,-468 328.5,-468 328.5,-468 322.5,-468 316.5,-462 316.5,-456 316.5,-456 316.5,-444 316.5,-444 316.5,-438 322.5,-432 328.5,-432 328.5,-432 382.5,-432 382.5,-432 388.5,-432 394.5,-438 394.5,-444 394.5,-444 394.5,-456 394.5,-456 394.5,-462 388.5,-468 382.5,-468"/>
<text text-anchor="middle" x="355.5" y="-447.5" font-family="sans" font-size="10.00" fill="#000000">numSeqParse</text>
</g>
<!-- 16&#45;&gt;15 -->
<g id="edge38" class="edge">
<title>16&#45;&gt;15</title>
<path fill="none" stroke="#c0c0c0" stroke-width="2" d="M355.5,-431.8314C355.5,-424.131 355.5,-414.9743 355.5,-406.4166"/>
<polygon fill="#c0c0c0" stroke="#c0c0c0" stroke-width="2" points="359.0001,-406.4132 355.5,-396.4133 352.0001,-406.4133 359.0001,-406.4132"/>
</g>
<!-- 17 -->
<g id="node18" class="node">
<title>17</title>
<path fill="none" stroke="#61d856" stroke-width="2" d="M384.5,-540C384.5,-540 326.5,-540 326.5,-540 320.5,-540 314.5,-534 314.5,-528 314.5,-528 314.5,-516 314.5,-516 314.5,-510 320.5,-504 326.5,-504 326.5,-504 384.5,-504 384.5,-504 390.5,-504 396.5,-510 396.5,-516 396.5,-516 396.5,-528 396.5,-528 396.5,-534 390.5,-540 384.5,-540"/>
<text text-anchor="middle" x="355.5" y="-519.5" font-family="sans" font-size="10.00" fill="#000000">rawReadCount</text>
</g>
<!-- 17&#45;&gt;16 -->
<g id="edge42" class="edge">
<title>17&#45;&gt;16</title>
<path fill="none" stroke="#c0c0c0" stroke-width="2" d="M355.5,-503.8314C355.5,-496.131 355.5,-486.9743 355.5,-478.4166"/>
<polygon fill="#c0c0c0" stroke="#c0c0c0" stroke-width="2" points="359.0001,-478.4132 355.5,-468.4133 352.0001,-478.4133 359.0001,-478.4132"/>
</g>
<!-- 18 -->
<g id="node19" class="node">
<title>18</title>
<path fill="none" stroke="#5673d8" stroke-width="2" d="M1196.5,-612C1196.5,-612 1158.5,-612 1158.5,-612 1152.5,-612 1146.5,-606 1146.5,-600 1146.5,-600 1146.5,-588 1146.5,-588 1146.5,-582 1152.5,-576 1158.5,-576 1158.5,-576 1196.5,-576 1196.5,-576 1202.5,-576 1208.5,-582 1208.5,-588 1208.5,-588 1208.5,-600 1208.5,-600 1208.5,-606 1202.5,-612 1196.5,-612"/>
<text text-anchor="middle" x="1177.5" y="-591.5" font-family="sans" font-size="10.00" fill="#000000">multiqcFilt</text>
</g>
<!-- 18&#45;&gt;0 -->
<g id="edge22" class="edge">
<title>18&#45;&gt;0</title>
<path fill="none" stroke="#c0c0c0" stroke-width="2" d="M1192.471,-575.9609C1220.3677,-540.4496 1277.5,-457.9616 1277.5,-378 1277.5,-378 1277.5,-378 1277.5,-162 1277.5,-118.0449 1272.3487,-97.4346 1236.5,-72 1191.1856,-39.8495 803.7762,-23.6152 680.7993,-19.2384"/>
<polygon fill="#c0c0c0" stroke="#c0c0c0" stroke-width="2" points="680.8519,-15.7382 670.7355,-18.8859 680.6068,-22.7339 680.8519,-15.7382"/>
</g>
<!-- 19&#45;&gt;18 -->
<g id="edge43" class="edge">
<title>19&#45;&gt;18</title>
<path fill="none" stroke="#c0c0c0" stroke-width="2" d="M1172.2664,-647.8314C1173.015,-640.131 1173.9053,-630.9743 1174.7373,-622.4166"/>
<polygon fill="#c0c0c0" stroke="#c0c0c0" stroke-width="2" points="1178.2256,-622.7051 1175.7098,-612.4133 1171.2585,-622.0276 1178.2256,-622.7051"/>
</g>
<!-- 20 -->
<g id="node21" class="node">
<title>20</title>
<path fill="none" stroke="#d86656" stroke-width="2" d="M665.5,-108C665.5,-108 621.5,-108 621.5,-108 615.5,-108 609.5,-102 609.5,-96 609.5,-96 609.5,-84 609.5,-84 609.5,-78 615.5,-72 621.5,-72 621.5,-72 665.5,-72 665.5,-72 671.5,-72 677.5,-78 677.5,-84 677.5,-84 677.5,-96 677.5,-96 677.5,-102 671.5,-108 665.5,-108"/>
<text text-anchor="middle" x="643.5" y="-87.5" font-family="sans" font-size="10.00" fill="#000000">multiqcRaw</text>
</g>
<!-- 20&#45;&gt;0 -->
<g id="edge2" class="edge">
<title>20&#45;&gt;0</title>
<path fill="none" stroke="#c0c0c0" stroke-width="2" d="M643.5,-71.8314C643.5,-64.131 643.5,-54.9743 643.5,-46.4166"/>
<polygon fill="#c0c0c0" stroke="#c0c0c0" stroke-width="2" points="647.0001,-46.4132 643.5,-36.4133 640.0001,-46.4133 647.0001,-46.4132"/>
</g>
<!-- 21 -->
<g id="node22" class="node">
<title>21</title>
<path fill="none" stroke="#56d86b" stroke-width="2" d="M663.5,-180C663.5,-180 623.5,-180 623.5,-180 617.5,-180 611.5,-174 611.5,-168 611.5,-168 611.5,-156 611.5,-156 611.5,-150 617.5,-144 623.5,-144 623.5,-144 663.5,-144 663.5,-144 669.5,-144 675.5,-150 675.5,-156 675.5,-156 675.5,-168 675.5,-168 675.5,-174 669.5,-180 663.5,-180"/>
<text text-anchor="middle" x="643.5" y="-159.5" font-family="sans" font-size="10.00" fill="#000000">fastqcRaw</text>
</g>
<!-- 21&#45;&gt;20 -->
<g id="edge45" class="edge">
<title>21&#45;&gt;20</title>
<path fill="none" stroke="#c0c0c0" stroke-width="2" d="M643.5,-143.8314C643.5,-136.131 643.5,-126.9743 643.5,-118.4166"/>
<polygon fill="#c0c0c0" stroke="#c0c0c0" stroke-width="2" points="647.0001,-118.4132 643.5,-108.4133 640.0001,-118.4133 647.0001,-118.4132"/>
</g>
<!-- 22 -->
<g id="node23" class="node">
<title>22</title>
<path fill="none" stroke="#56d8c9" stroke-width="2" d="M895.5,-108C895.5,-108 821.5,-108 821.5,-108 815.5,-108 809.5,-102 809.5,-96 809.5,-96 809.5,-84 809.5,-84 809.5,-78 815.5,-72 821.5,-72 821.5,-72 895.5,-72 895.5,-72 901.5,-72 907.5,-78 907.5,-84 907.5,-84 907.5,-96 907.5,-96 907.5,-102 901.5,-108 895.5,-108"/>
<text text-anchor="middle" x="858.5" y="-87.5" font-family="sans" font-size="10.00" fill="#000000">seqkit_counts_raw</text>
</g>
<!-- 22&#45;&gt;0 -->
<g id="edge21" class="edge">
<title>22&#45;&gt;0</title>
<path fill="none" stroke="#c0c0c0" stroke-width="2" d="M809.4441,-73.572C770.1342,-60.4077 715.8443,-42.2269 680.2203,-30.297"/>
<polygon fill="#c0c0c0" stroke="#c0c0c0" stroke-width="2" points="681.2893,-26.964 670.6954,-27.1073 679.0664,-33.6017 681.2893,-26.964"/>
</g>
<!-- 23 -->
<g id="node24" class="node">
<title>23</title>
<path fill="none" stroke="#d8d356" stroke-width="2" d="M889.5,-252C889.5,-252 827.5,-252 827.5,-252 821.5,-252 815.5,-246 815.5,-240 815.5,-240 815.5,-228 815.5,-228 815.5,-222 821.5,-216 827.5,-216 827.5,-216 889.5,-216 889.5,-216 895.5,-216 901.5,-222 901.5,-228 901.5,-228 901.5,-240 901.5,-240 901.5,-246 895.5,-252 889.5,-252"/>
<text text-anchor="middle" x="858.5" y="-231.5" font-family="sans" font-size="10.00" fill="#000000">random_sample</text>
</g>
<!-- 23&#45;&gt;0 -->
<g id="edge6" class="edge">
<title>23&#45;&gt;0</title>
<path fill="none" stroke="#c0c0c0" stroke-width="2" d="M851.3057,-215.8604C837.5505,-183.2006 804.6397,-114.0032 757.5,-72 735.2254,-52.1525 704.3747,-38.1368 680.3833,-29.3666"/>
<polygon fill="#c0c0c0" stroke="#c0c0c0" stroke-width="2" points="681.4926,-26.0467 670.8978,-26.0387 679.1752,-32.652 681.4926,-26.0467"/>
</g>
<!-- 23&#45;&gt;22 -->
<g id="edge46" class="edge">
<title>23&#45;&gt;22</title>
<path fill="none" stroke="#c0c0c0" stroke-width="2" d="M858.5,-215.7623C858.5,-191.201 858.5,-147.2474 858.5,-118.3541"/>
<polygon fill="#c0c0c0" stroke="#c0c0c0" stroke-width="2" points="862.0001,-118.0896 858.5,-108.0896 855.0001,-118.0897 862.0001,-118.0896"/>
</g>
<!-- 23&#45;&gt;24 -->
<g id="edge47" class="edge">
<title>23&#45;&gt;24</title>
<path fill="none" stroke="#c0c0c0" stroke-width="2" d="M878.6874,-215.8314C888.3514,-207.1337 900.0796,-196.5783 910.5816,-187.1265"/>
<polygon fill="#c0c0c0" stroke="#c0c0c0" stroke-width="2" points="913.2275,-189.454 918.3191,-180.1628 908.5447,-184.251 913.2275,-189.454"/>
</g>
<!-- 23&#45;&gt;25 -->
<g id="edge49" class="edge">
<title>23&#45;&gt;25</title>
<path fill="none" stroke="#c0c0c0" stroke-width="2" d="M901.6484,-221.6228C939.4383,-210.7826 995.0639,-194.8263 1039.2627,-182.1477"/>
<polygon fill="#c0c0c0" stroke="#c0c0c0" stroke-width="2" points="1040.4351,-185.4527 1049.0823,-179.331 1038.5049,-178.724 1040.4351,-185.4527"/>
</g>
<!-- 24&#45;&gt;0 -->
<g id="edge16" class="edge">
<title>24&#45;&gt;0</title>
<path fill="none" stroke="#c0c0c0" stroke-width="2" d="M993.1477,-145.2573C1023.1259,-134.8492 1055.9187,-121.014 1064.5,-108 1073.3079,-94.6425 1075.0695,-84.0119 1064.5,-72 1039.2844,-43.3435 779.0941,-25.6999 680.8132,-20.0147"/>
<polygon fill="#c0c0c0" stroke="#c0c0c0" stroke-width="2" points="680.9168,-16.515 670.734,-19.4409 680.5189,-23.5037 680.9168,-16.515"/>
</g>
<!-- 26 -->
<g id="node27" class="node">
<title>26</title>
<path fill="none" stroke="#d85656" stroke-width="2" d="M1043.5,-108C1043.5,-108 937.5,-108 937.5,-108 931.5,-108 925.5,-102 925.5,-96 925.5,-96 925.5,-84 925.5,-84 925.5,-78 931.5,-72 937.5,-72 937.5,-72 1043.5,-72 1043.5,-72 1049.5,-72 1055.5,-78 1055.5,-84 1055.5,-84 1055.5,-96 1055.5,-96 1055.5,-102 1049.5,-108 1043.5,-108"/>
<text text-anchor="middle" x="990.5" y="-87.5" font-family="sans" font-size="10.00" fill="#000000">reads_Length_Distribution</text>
</g>
<!-- 24&#45;&gt;26 -->
<g id="edge51" class="edge">
<title>24&#45;&gt;26</title>
<path fill="none" stroke="#c0c0c0" stroke-width="2" d="M951.6218,-143.8314C957.5499,-135.6232 964.6729,-125.7606 971.1933,-116.7323"/>
<polygon fill="#c0c0c0" stroke="#c0c0c0" stroke-width="2" points="974.184,-118.5693 977.2015,-108.4133 968.5092,-114.4708 974.184,-118.5693"/>
</g>
<!-- 25&#45;&gt;0 -->
<g id="edge14" class="edge">
<title>25&#45;&gt;0</title>
<path fill="none" stroke="#c0c0c0" stroke-width="2" d="M1123.5623,-143.9051C1137.2374,-123.9787 1153.5191,-92.105 1135.5,-72 1105.2509,-38.2492 790.7064,-23.4525 680.9977,-19.2916"/>
<polygon fill="#c0c0c0" stroke="#c0c0c0" stroke-width="2" points="680.8603,-15.7842 670.7374,-18.911 680.6007,-22.7793 680.8603,-15.7842"/>
</g>
<!-- 26&#45;&gt;0 -->
<g id="edge1" class="edge">
<title>26&#45;&gt;0</title>
<path fill="none" stroke="#c0c0c0" stroke-width="2" d="M925.1657,-73.9453C922.2395,-73.2775 919.3406,-72.6261 916.5,-72 832.4577,-53.4759 733.1989,-34.5865 680.5871,-24.8083"/>
<polygon fill="#c0c0c0" stroke="#c0c0c0" stroke-width="2" points="681.1754,-21.3578 670.705,-22.977 679.8998,-28.2407 681.1754,-21.3578"/>
</g>
<!-- 27&#45;&gt;0 -->
<g id="edge9" class="edge">
<title>27&#45;&gt;0</title>
<path fill="none" stroke="#c0c0c0" stroke-width="2" d="M243.7643,-287.9797C235.8327,-244.1393 222.5403,-131.1835 281.5,-72 304.2592,-49.1544 518.5451,-28.5856 606.3005,-21.0478"/>
<polygon fill="#c0c0c0" stroke="#c0c0c0" stroke-width="2" points="606.6859,-24.5278 616.3538,-20.1939 606.0934,-17.5529 606.6859,-24.5278"/>
</g>
<!-- 28&#45;&gt;0 -->
<g id="edge10" class="edge">
<title>28&#45;&gt;0</title>
<path fill="none" stroke="#c0c0c0" stroke-width="2" d="M500.0837,-287.983C455.5013,-246.4923 357.7361,-142.3726 413.5,-72 437.1703,-42.1287 547.6829,-27.1694 606.4783,-21.2137"/>
<polygon fill="#c0c0c0" stroke="#c0c0c0" stroke-width="2" points="606.867,-24.6924 616.4794,-20.237 606.1866,-17.7256 606.867,-24.6924"/>
</g>
<!-- 30 -->
<g id="node31" class="node">
<title>30</title>
<path fill="none" stroke="#56d88a" stroke-width="2" d="M546,-252C546,-252 487,-252 487,-252 481,-252 475,-246 475,-240 475,-240 475,-228 475,-228 475,-222 481,-216 487,-216 487,-216 546,-216 546,-216 552,-216 558,-222 558,-228 558,-228 558,-240 558,-240 558,-246 552,-252 546,-252"/>
<text text-anchor="middle" x="516.5" y="-231.5" font-family="sans" font-size="10.00" fill="#000000">GTDB_NoHITs</text>
</g>
<!-- 28&#45;&gt;30 -->
<g id="edge60" class="edge">
<title>28&#45;&gt;30</title>
<path fill="none" stroke="#c0c0c0" stroke-width="2" d="M519.4906,-287.8314C519.0628,-280.131 518.5541,-270.9743 518.0787,-262.4166"/>
<polygon fill="#c0c0c0" stroke="#c0c0c0" stroke-width="2" points="521.5724,-262.2037 517.523,-252.4133 514.5831,-262.592 521.5724,-262.2037"/>
</g>
<!-- 29&#45;&gt;0 -->
<g id="edge4" class="edge">
<title>29&#45;&gt;0</title>
<path fill="none" stroke="#c0c0c0" stroke-width="2" d="M681.7372,-287.7245C692.3463,-247.4134 713.1979,-148.3863 686.5,-72 682.9043,-61.7121 676.4372,-51.9193 669.5924,-43.568"/>
<polygon fill="#c0c0c0" stroke="#c0c0c0" stroke-width="2" points="672.2164,-41.2517 662.9956,-36.0337 666.9498,-45.863 672.2164,-41.2517"/>
</g>
<!-- 29&#45;&gt;30 -->
<g id="edge61" class="edge">
<title>29&#45;&gt;30</title>
<path fill="none" stroke="#c0c0c0" stroke-width="2" d="M637.3596,-288.3868C615.8119,-278.6903 588.8581,-266.5612 565.8758,-256.2191"/>
<polygon fill="#c0c0c0" stroke="#c0c0c0" stroke-width="2" points="567.1826,-252.9692 556.6271,-252.0572 564.3101,-259.3526 567.1826,-252.9692"/>
</g>
<!-- 30&#45;&gt;0 -->
<g id="edge13" class="edge">
<title>30&#45;&gt;0</title>
<path fill="none" stroke="#c0c0c0" stroke-width="2" d="M493.5386,-215.8036C456.8254,-184.5206 392.6166,-119.3466 429.5,-72 451.0137,-44.3833 550.8403,-28.6794 606.2255,-21.9521"/>
<polygon fill="#c0c0c0" stroke="#c0c0c0" stroke-width="2" points="606.8244,-25.4058 616.3474,-20.7624 606.0072,-18.4537 606.8244,-25.4058"/>
</g>
<!-- 31 -->
<g id="node32" class="node">
<title>31</title>
<path fill="none" stroke="#56a2d8" stroke-width="2" d="M541,-180C541,-180 492,-180 492,-180 486,-180 480,-174 480,-168 480,-168 480,-156 480,-156 480,-150 486,-144 492,-144 492,-144 541,-144 541,-144 547,-144 553,-150 553,-156 553,-156 553,-168 553,-168 553,-174 547,-180 541,-180"/>
<text text-anchor="middle" x="516.5" y="-159.5" font-family="sans" font-size="10.00" fill="#000000">vsearchURE</text>
</g>
<!-- 30&#45;&gt;31 -->
<g id="edge62" class="edge">
<title>30&#45;&gt;31</title>
<path fill="none" stroke="#c0c0c0" stroke-width="2" d="M516.5,-215.8314C516.5,-208.131 516.5,-198.9743 516.5,-190.4166"/>
<polygon fill="#c0c0c0" stroke="#c0c0c0" stroke-width="2" points="520.0001,-190.4132 516.5,-180.4133 513.0001,-190.4133 520.0001,-190.4132"/>
</g>
<!-- 32 -->
<g id="node33" class="node">
<title>32</title>
<path fill="none" stroke="#ced856" stroke-width="2" d="M503,-108C503,-108 450,-108 450,-108 444,-108 438,-102 438,-96 438,-96 438,-84 438,-84 438,-78 444,-72 450,-72 450,-72 503,-72 503,-72 509,-72 515,-78 515,-84 515,-84 515,-96 515,-96 515,-102 509,-108 503,-108"/>
<text text-anchor="middle" x="476.5" y="-87.5" font-family="sans" font-size="10.00" fill="#000000">vsearchParse</text>
</g>
<!-- 30&#45;&gt;32 -->
<g id="edge63" class="edge">
<title>30&#45;&gt;32</title>
<path fill="none" stroke="#c0c0c0" stroke-width="2" d="M495.6422,-215.6461C486.346,-206.0709 476.4022,-193.54 471.5,-180 464.3301,-160.1965 466.081,-136.3405 469.3545,-118.1665"/>
<polygon fill="#c0c0c0" stroke="#c0c0c0" stroke-width="2" points="472.8188,-118.6957 471.4019,-108.1961 465.9619,-117.2876 472.8188,-118.6957"/>
</g>
<!-- 31&#45;&gt;0 -->
<g id="edge19" class="edge">
<title>31&#45;&gt;0</title>
<path fill="none" stroke="#c0c0c0" stroke-width="2" d="M523.8793,-143.9548C532.3846,-124.6503 547.7644,-93.8633 567.5,-72 578.9768,-59.2858 593.9514,-47.8559 607.5711,-38.821"/>
<polygon fill="#c0c0c0" stroke="#c0c0c0" stroke-width="2" points="609.7461,-41.5841 616.2751,-33.2401 605.9677,-35.6914 609.7461,-41.5841"/>
</g>
<!-- 31&#45;&gt;32 -->
<g id="edge64" class="edge">
<title>31&#45;&gt;32</title>
<path fill="none" stroke="#c0c0c0" stroke-width="2" d="M506.4063,-143.8314C501.9403,-135.7925 496.5925,-126.1666 491.6621,-117.2918"/>
<polygon fill="#c0c0c0" stroke="#c0c0c0" stroke-width="2" points="494.6456,-115.4551 486.7296,-108.4133 488.5265,-118.8546 494.6456,-115.4551"/>
</g>
<!-- 32&#45;&gt;0 -->
<g id="edge7" class="edge">
<title>32&#45;&gt;0</title>
<path fill="none" stroke="#c0c0c0" stroke-width="2" d="M515.2329,-73.3008C542.8656,-61.3873 579.7848,-45.47 606.9181,-33.7718"/>
<polygon fill="#c0c0c0" stroke="#c0c0c0" stroke-width="2" points="608.6393,-36.8413 616.4365,-29.6681 605.8679,-30.4132 608.6393,-36.8413"/>
</g>
</g>
</svg>
