<?xml version="1.0" encoding="UTF-8" standalone="no"?>
<!DOCTYPE svg PUBLIC "-//W3C//DTD SVG 1.1//EN"
 "http://www.w3.org/Graphics/SVG/1.1/DTD/svg11.dtd">
<!-- Generated by graphviz version 2.40.1 (0)
 -->
<!-- Title: snakemake_dag Pages: 1 -->
<svg width="1512pt" height="692pt"
 viewBox="0.00 0.00 1512.42 692.00" xmlns="http://www.w3.org/2000/svg" xmlns:xlink="http://www.w3.org/1999/xlink">
<g id="graph0" class="graph" transform="scale(1 1) rotate(0) translate(4 688)">
<title>snakemake_dag</title>
<polygon fill="#ffffff" stroke="transparent" points="-4,4 -4,-688 1508.4167,-688 1508.4167,4 -4,4"/>
<!-- 0 -->
<g id="node1" class="node">
<title>0</title>
<path fill="none" stroke="#d8d356" stroke-width="2" d="M756.5,-36C756.5,-36 726.5,-36 726.5,-36 720.5,-36 714.5,-30 714.5,-24 714.5,-24 714.5,-12 714.5,-12 714.5,-6 720.5,0 726.5,0 726.5,0 756.5,0 756.5,0 762.5,0 768.5,-6 768.5,-12 768.5,-12 768.5,-24 768.5,-24 768.5,-30 762.5,-36 756.5,-36"/>
<text text-anchor="middle" x="741.5" y="-15.5" font-family="sans" font-size="10.00" fill="#000000">all</text>
</g>
<!-- 1 -->
<g id="node2" class="node">
<title>1</title>
<path fill="none" stroke="#d87556" stroke-width="2" d="M481.5,-180C481.5,-180 417.5,-180 417.5,-180 411.5,-180 405.5,-174 405.5,-168 405.5,-168 405.5,-156 405.5,-156 405.5,-150 411.5,-144 417.5,-144 417.5,-144 481.5,-144 481.5,-144 487.5,-144 493.5,-150 493.5,-156 493.5,-156 493.5,-168 493.5,-168 493.5,-174 487.5,-180 481.5,-180"/>
<text text-anchor="middle" x="449.5" y="-159.5" font-family="sans" font-size="10.00" fill="#000000">plotASVLength</text>
</g>
<!-- 1&#45;&gt;0 -->
<g id="edge2" class="edge">
<title>1&#45;&gt;0</title>
<path fill="none" stroke="#c0c0c0" stroke-width="2" d="M452.5238,-143.8247C456.9399,-123.2059 467.1967,-90.1035 489.5,-72 522.0934,-45.5441 642.2976,-28.8593 704.1661,-21.8354"/>
<polygon fill="#c0c0c0" stroke="#c0c0c0" stroke-width="2" points="704.7361,-25.2937 714.2896,-20.7133 703.9649,-18.3363 704.7361,-25.2937"/>
</g>
<!-- 25 -->
<g id="node26" class="node">
<title>25</title>
<path fill="none" stroke="#569ad8" stroke-width="2" d="M548.5,-108C548.5,-108 510.5,-108 510.5,-108 504.5,-108 498.5,-102 498.5,-96 498.5,-96 498.5,-84 498.5,-84 498.5,-78 504.5,-72 510.5,-72 510.5,-72 548.5,-72 548.5,-72 554.5,-72 560.5,-78 560.5,-84 560.5,-84 560.5,-96 560.5,-96 560.5,-102 554.5,-108 548.5,-108"/>
<text text-anchor="middle" x="529.5" y="-87.5" font-family="sans" font-size="10.00" fill="#000000">qc_report</text>
</g>
<!-- 1&#45;&gt;25 -->
<g id="edge47" class="edge">
<title>1&#45;&gt;25</title>
<path fill="none" stroke="#c0c0c0" stroke-width="2" d="M469.6874,-143.8314C479.3514,-135.1337 491.0796,-124.5783 501.5816,-115.1265"/>
<polygon fill="#c0c0c0" stroke="#c0c0c0" stroke-width="2" points="504.2275,-117.454 509.3191,-108.1628 499.5447,-112.251 504.2275,-117.454"/>
</g>
<!-- 2 -->
<g id="node3" class="node">
<title>2</title>
<path fill="none" stroke="#56d89a" stroke-width="2" d="M561,-396C561,-396 484,-396 484,-396 478,-396 472,-390 472,-384 472,-384 472,-372 472,-372 472,-366 478,-360 484,-360 484,-360 561,-360 561,-360 567,-360 573,-366 573,-372 573,-372 573,-384 573,-384 573,-390 567,-396 561,-396"/>
<text text-anchor="middle" x="522.5" y="-375.5" font-family="sans" font-size="10.00" fill="#000000">removeChimeras</text>
</g>
<!-- 2&#45;&gt;1 -->
<g id="edge20" class="edge">
<title>2&#45;&gt;1</title>
<path fill="none" stroke="#c0c0c0" stroke-width="2" d="M521.4741,-359.7227C520.0668,-341.2883 516.8182,-312.1761 509.5,-288 498.6696,-252.2213 479.0998,-213.8017 465.2589,-188.9207"/>
<polygon fill="#c0c0c0" stroke="#c0c0c0" stroke-width="2" points="468.2312,-187.0663 460.2649,-180.0815 462.1366,-190.5097 468.2312,-187.0663"/>
</g>
<!-- 10 -->
<g id="node11" class="node">
<title>10</title>
<path fill="none" stroke="#ced856" stroke-width="2" d="M488,-324C488,-324 453,-324 453,-324 447,-324 441,-318 441,-312 441,-312 441,-300 441,-300 441,-294 447,-288 453,-288 453,-288 488,-288 488,-288 494,-288 500,-294 500,-300 500,-300 500,-312 500,-312 500,-318 494,-324 488,-324"/>
<text text-anchor="middle" x="470.5" y="-303.5" font-family="sans" font-size="10.00" fill="#000000">RDPtaxa</text>
</g>
<!-- 2&#45;&gt;10 -->
<g id="edge28" class="edge">
<title>2&#45;&gt;10</title>
<path fill="none" stroke="#c0c0c0" stroke-width="2" d="M509.3782,-359.8314C503.4501,-351.6232 496.3271,-341.7606 489.8067,-332.7323"/>
<polygon fill="#c0c0c0" stroke="#c0c0c0" stroke-width="2" points="492.4908,-330.4708 483.7985,-324.4133 486.816,-334.5693 492.4908,-330.4708"/>
</g>
<!-- 11 -->
<g id="node12" class="node">
<title>11</title>
<path fill="none" stroke="#568ad8" stroke-width="2" d="M163.5,-324C163.5,-324 105.5,-324 105.5,-324 99.5,-324 93.5,-318 93.5,-312 93.5,-312 93.5,-300 93.5,-300 93.5,-294 99.5,-288 105.5,-288 105.5,-288 163.5,-288 163.5,-288 169.5,-288 175.5,-294 175.5,-300 175.5,-300 175.5,-312 175.5,-312 175.5,-318 169.5,-324 163.5,-324"/>
<text text-anchor="middle" x="134.5" y="-303.5" font-family="sans" font-size="10.00" fill="#000000">multipleAlign</text>
</g>
<!-- 2&#45;&gt;11 -->
<g id="edge29" class="edge">
<title>2&#45;&gt;11</title>
<path fill="none" stroke="#c0c0c0" stroke-width="2" d="M471.7758,-368.5873C397.6173,-354.8259 260.3497,-329.3536 185.8423,-315.5274"/>
<polygon fill="#c0c0c0" stroke="#c0c0c0" stroke-width="2" points="186.2294,-312.0396 175.7586,-313.6562 184.9522,-318.9221 186.2294,-312.0396"/>
</g>
<!-- 13 -->
<g id="node14" class="node">
<title>13</title>
<path fill="none" stroke="#d89c56" stroke-width="2" d="M674.5,-324C674.5,-324 582.5,-324 582.5,-324 576.5,-324 570.5,-318 570.5,-312 570.5,-312 570.5,-300 570.5,-300 570.5,-294 576.5,-288 582.5,-288 582.5,-288 674.5,-288 674.5,-288 680.5,-288 686.5,-294 686.5,-300 686.5,-300 686.5,-312 686.5,-312 686.5,-318 680.5,-324 674.5,-324"/>
<text text-anchor="middle" x="628.5" y="-303.5" font-family="sans" font-size="10.00" fill="#000000">combineReadCounts</text>
</g>
<!-- 2&#45;&gt;13 -->
<g id="edge31" class="edge">
<title>2&#45;&gt;13</title>
<path fill="none" stroke="#c0c0c0" stroke-width="2" d="M549.2483,-359.8314C562.5553,-350.7927 578.816,-339.7476 593.1375,-330.0198"/>
<polygon fill="#c0c0c0" stroke="#c0c0c0" stroke-width="2" points="595.4547,-332.677 601.7603,-324.1628 591.5215,-326.8864 595.4547,-332.677"/>
</g>
<!-- 28 -->
<g id="node29" class="node">
<title>28</title>
<path fill="none" stroke="#d8bc56" stroke-width="2" d="M450,-252C450,-252 343,-252 343,-252 337,-252 331,-246 331,-240 331,-240 331,-228 331,-228 331,-222 337,-216 343,-216 343,-216 450,-216 450,-216 456,-216 462,-222 462,-228 462,-228 462,-240 462,-240 462,-246 456,-252 450,-252"/>
<text text-anchor="middle" x="396.5" y="-231.5" font-family="sans" font-size="10.00" fill="#000000">combining_annotations</text>
</g>
<!-- 2&#45;&gt;28 -->
<g id="edge56" class="edge">
<title>2&#45;&gt;28</title>
<path fill="none" stroke="#c0c0c0" stroke-width="2" d="M480.2925,-359.99C463.6053,-351.1554 445.3777,-339.1212 432.5,-324 417.3096,-306.1632 407.9942,-281.1096 402.6564,-261.9636"/>
<polygon fill="#c0c0c0" stroke="#c0c0c0" stroke-width="2" points="405.9773,-260.8254 400.088,-252.0181 399.1996,-262.5757 405.9773,-260.8254"/>
</g>
<!-- 3 -->
<g id="node4" class="node">
<title>3</title>
<path fill="none" stroke="#56d88a" stroke-width="2" d="M619.5,-468C619.5,-468 549.5,-468 549.5,-468 543.5,-468 537.5,-462 537.5,-456 537.5,-456 537.5,-444 537.5,-444 537.5,-438 543.5,-432 549.5,-432 549.5,-432 619.5,-432 619.5,-432 625.5,-432 631.5,-438 631.5,-444 631.5,-444 631.5,-456 631.5,-456 631.5,-462 625.5,-468 619.5,-468"/>
<text text-anchor="middle" x="584.5" y="-447.5" font-family="sans" font-size="10.00" fill="#000000">generateSeqtab</text>
</g>
<!-- 3&#45;&gt;2 -->
<g id="edge21" class="edge">
<title>3&#45;&gt;2</title>
<path fill="none" stroke="#c0c0c0" stroke-width="2" d="M568.8548,-431.8314C561.6409,-423.454 552.943,-413.3531 545.0395,-404.1749"/>
<polygon fill="#c0c0c0" stroke="#c0c0c0" stroke-width="2" points="547.5333,-401.7071 538.3559,-396.4133 542.2289,-406.2748 547.5333,-401.7071"/>
</g>
<!-- 3&#45;&gt;13 -->
<g id="edge32" class="edge">
<title>3&#45;&gt;13</title>
<path fill="none" stroke="#c0c0c0" stroke-width="2" d="M590.0726,-431.7623C597.6105,-407.0928 611.1262,-362.8598 619.9527,-333.9731"/>
<polygon fill="#c0c0c0" stroke="#c0c0c0" stroke-width="2" points="623.3976,-334.6759 622.9726,-324.0896 616.7031,-332.6303 623.3976,-334.6759"/>
</g>
<!-- 4 -->
<g id="node5" class="node">
<title>4</title>
<path fill="none" stroke="#56d86b" stroke-width="2" d="M827,-612C827,-612 780,-612 780,-612 774,-612 768,-606 768,-600 768,-600 768,-588 768,-588 768,-582 774,-576 780,-576 780,-576 827,-576 827,-576 833,-576 839,-582 839,-588 839,-588 839,-600 839,-600 839,-606 833,-612 827,-612"/>
<text text-anchor="middle" x="803.5" y="-591.5" font-family="sans" font-size="10.00" fill="#000000">dada2Filter</text>
</g>
<!-- 4&#45;&gt;0 -->
<g id="edge11" class="edge">
<title>4&#45;&gt;0</title>
<path fill="none" stroke="#c0c0c0" stroke-width="2" d="M812.8313,-575.9025C825.7471,-549.1296 847.5,-497.0538 847.5,-450 847.5,-450 847.5,-450 847.5,-234 847.5,-193.1184 844.6525,-181.5554 828.5,-144 812.3401,-106.4275 784.179,-68.5048 764.2796,-44.2247"/>
<polygon fill="#c0c0c0" stroke="#c0c0c0" stroke-width="2" points="766.7083,-41.6718 757.6188,-36.2284 761.3299,-46.152 766.7083,-41.6718"/>
</g>
<!-- 4&#45;&gt;3 -->
<g id="edge23" class="edge">
<title>4&#45;&gt;3</title>
<path fill="none" stroke="#c0c0c0" stroke-width="2" d="M767.9944,-591.3092C729.5398,-586.6791 668.3645,-574.1048 628.5,-540 609.7056,-523.9211 598.2141,-497.9328 591.7117,-478.0066"/>
<polygon fill="#c0c0c0" stroke="#c0c0c0" stroke-width="2" points="594.9982,-476.7827 588.7538,-468.2236 588.2978,-478.8086 594.9982,-476.7827"/>
</g>
<!-- 6 -->
<g id="node7" class="node">
<title>6</title>
<path fill="none" stroke="#56d0d8" stroke-width="2" d="M717.5,-540C717.5,-540 649.5,-540 649.5,-540 643.5,-540 637.5,-534 637.5,-528 637.5,-528 637.5,-516 637.5,-516 637.5,-510 643.5,-504 649.5,-504 649.5,-504 717.5,-504 717.5,-504 723.5,-504 729.5,-510 729.5,-516 729.5,-516 729.5,-528 729.5,-528 729.5,-534 723.5,-540 717.5,-540"/>
<text text-anchor="middle" x="683.5" y="-519.5" font-family="sans" font-size="10.00" fill="#000000">learnErrorRates</text>
</g>
<!-- 4&#45;&gt;6 -->
<g id="edge25" class="edge">
<title>4&#45;&gt;6</title>
<path fill="none" stroke="#c0c0c0" stroke-width="2" d="M773.2189,-575.8314C757.8702,-566.6221 739.0502,-555.3301 722.6177,-545.4706"/>
<polygon fill="#c0c0c0" stroke="#c0c0c0" stroke-width="2" points="724.1471,-542.3066 713.7714,-540.1628 720.5456,-548.3091 724.1471,-542.3066"/>
</g>
<!-- 9 -->
<g id="node10" class="node">
<title>9</title>
<path fill="none" stroke="#78d856" stroke-width="2" d="M807,-180C807,-180 676,-180 676,-180 670,-180 664,-174 664,-168 664,-168 664,-156 664,-156 664,-150 670,-144 676,-144 676,-144 807,-144 807,-144 813,-144 819,-150 819,-156 819,-156 819,-168 819,-168 819,-174 813,-180 807,-180"/>
<text text-anchor="middle" x="741.5" y="-159.5" font-family="sans" font-size="10.00" fill="#000000">plotQualityProfileAfterdada2</text>
</g>
<!-- 4&#45;&gt;9 -->
<g id="edge27" class="edge">
<title>4&#45;&gt;9</title>
<path fill="none" stroke="#c0c0c0" stroke-width="2" d="M803.5,-575.8146C803.5,-548.4983 803.5,-495.25 803.5,-450 803.5,-450 803.5,-450 803.5,-306 803.5,-262.0364 778.8191,-216.2257 760.6013,-188.3997"/>
<polygon fill="#c0c0c0" stroke="#c0c0c0" stroke-width="2" points="763.4455,-186.3572 754.9531,-180.0224 757.6415,-190.2705 763.4455,-186.3572"/>
</g>
<!-- 4&#45;&gt;13 -->
<g id="edge33" class="edge">
<title>4&#45;&gt;13</title>
<path fill="none" stroke="#c0c0c0" stroke-width="2" d="M798.6133,-575.6351C784.1038,-521.2101 742.0593,-364.2889 738.5,-360 727.2565,-346.4516 711.7868,-336.0196 695.9984,-328.105"/>
<polygon fill="#c0c0c0" stroke="#c0c0c0" stroke-width="2" points="697.2341,-324.8184 686.6952,-323.7313 694.2559,-331.1533 697.2341,-324.8184"/>
</g>
<!-- 22 -->
<g id="node23" class="node">
<title>22</title>
<path fill="none" stroke="#9fd856" stroke-width="2" d="M1141,-180C1141,-180 1046,-180 1046,-180 1040,-180 1034,-174 1034,-168 1034,-168 1034,-156 1034,-156 1034,-150 1040,-144 1046,-144 1046,-144 1141,-144 1141,-144 1147,-144 1153,-150 1153,-156 1153,-156 1153,-168 1153,-168 1153,-174 1147,-180 1141,-180"/>
<text text-anchor="middle" x="1093.5" y="-159.5" font-family="sans" font-size="10.00" fill="#000000">seqkit_counts_dada2</text>
</g>
<!-- 4&#45;&gt;22 -->
<g id="edge41" class="edge">
<title>4&#45;&gt;22</title>
<path fill="none" stroke="#c0c0c0" stroke-width="2" d="M839.1752,-585.3926C895.9452,-569.3255 1000.5,-529.0094 1000.5,-450 1000.5,-450 1000.5,-450 1000.5,-378 1000.5,-304.5524 1046.4239,-227.668 1073.7291,-188.4457"/>
<polygon fill="#c0c0c0" stroke="#c0c0c0" stroke-width="2" points="1076.6408,-190.3905 1079.577,-180.2106 1070.9334,-186.3376 1076.6408,-190.3905"/>
</g>
<!-- 5 -->
<g id="node6" class="node">
<title>5</title>
<path fill="none" stroke="#d86656" stroke-width="2" d="M1281,-684C1281,-684 1232,-684 1232,-684 1226,-684 1220,-678 1220,-672 1220,-672 1220,-660 1220,-660 1220,-654 1226,-648 1232,-648 1232,-648 1281,-648 1281,-648 1287,-648 1293,-654 1293,-660 1293,-660 1293,-672 1293,-672 1293,-678 1287,-684 1281,-684"/>
<text text-anchor="middle" x="1256.5" y="-663.5" font-family="sans" font-size="10.00" fill="#000000">cutAdaptQc</text>
</g>
<!-- 5&#45;&gt;4 -->
<g id="edge24" class="edge">
<title>5&#45;&gt;4</title>
<path fill="none" stroke="#c0c0c0" stroke-width="2" d="M1219.8128,-660.1689C1137.6724,-647.1135 939.1435,-615.5592 849.1754,-601.2597"/>
<polygon fill="#c0c0c0" stroke="#c0c0c0" stroke-width="2" points="849.6955,-597.7985 839.27,-599.6853 848.5966,-604.7117 849.6955,-597.7985"/>
</g>
<!-- 7 -->
<g id="node8" class="node">
<title>7</title>
<path fill="none" stroke="#d85656" stroke-width="2" d="M1003.5,-180C1003.5,-180 887.5,-180 887.5,-180 881.5,-180 875.5,-174 875.5,-168 875.5,-168 875.5,-156 875.5,-156 875.5,-150 881.5,-144 887.5,-144 887.5,-144 1003.5,-144 1003.5,-144 1009.5,-144 1015.5,-150 1015.5,-156 1015.5,-156 1015.5,-168 1015.5,-168 1015.5,-174 1009.5,-180 1003.5,-180"/>
<text text-anchor="middle" x="945.5" y="-159.5" font-family="sans" font-size="10.00" fill="#000000">plotQualityProfileAfterQC</text>
</g>
<!-- 5&#45;&gt;7 -->
<g id="edge26" class="edge">
<title>5&#45;&gt;7</title>
<path fill="none" stroke="#c0c0c0" stroke-width="2" d="M1219.5193,-659.1886C1157.3229,-645.3618 1038.5,-607.728 1038.5,-522 1038.5,-522 1038.5,-522 1038.5,-378 1038.5,-304.5524 992.5761,-227.668 965.2709,-188.4457"/>
<polygon fill="#c0c0c0" stroke="#c0c0c0" stroke-width="2" points="968.0666,-186.3376 959.423,-180.2106 962.3592,-190.3905 968.0666,-186.3376"/>
</g>
<!-- 17 -->
<g id="node18" class="node">
<title>17</title>
<path fill="none" stroke="#56d8c1" stroke-width="2" d="M1450,-612C1450,-612 1413,-612 1413,-612 1407,-612 1401,-606 1401,-600 1401,-600 1401,-588 1401,-588 1401,-582 1407,-576 1413,-576 1413,-576 1450,-576 1450,-576 1456,-576 1462,-582 1462,-588 1462,-588 1462,-600 1462,-600 1462,-606 1456,-612 1450,-612"/>
<text text-anchor="middle" x="1431.5" y="-591.5" font-family="sans" font-size="10.00" fill="#000000">fastqcFilt</text>
</g>
<!-- 5&#45;&gt;17 -->
<g id="edge37" class="edge">
<title>5&#45;&gt;17</title>
<path fill="none" stroke="#c0c0c0" stroke-width="2" d="M1293.1857,-650.9064C1321.9106,-639.0882 1361.8164,-622.6698 1391.385,-610.5044"/>
<polygon fill="#c0c0c0" stroke="#c0c0c0" stroke-width="2" points="1393.0691,-613.5963 1400.9853,-606.5546 1390.4057,-607.1228 1393.0691,-613.5963"/>
</g>
<!-- 23 -->
<g id="node24" class="node">
<title>23</title>
<path fill="none" stroke="#88d856" stroke-width="2" d="M1453.5,-180C1453.5,-180 1345.5,-180 1345.5,-180 1339.5,-180 1333.5,-174 1333.5,-168 1333.5,-168 1333.5,-156 1333.5,-156 1333.5,-150 1339.5,-144 1345.5,-144 1345.5,-144 1453.5,-144 1453.5,-144 1459.5,-144 1465.5,-150 1465.5,-156 1465.5,-156 1465.5,-168 1465.5,-168 1465.5,-174 1459.5,-180 1453.5,-180"/>
<text text-anchor="middle" x="1399.5" y="-159.5" font-family="sans" font-size="10.00" fill="#000000">seqkit_counts_cutadapt</text>
</g>
<!-- 5&#45;&gt;23 -->
<g id="edge42" class="edge">
<title>5&#45;&gt;23</title>
<path fill="none" stroke="#c0c0c0" stroke-width="2" d="M1284.927,-647.8591C1318.9818,-623.6527 1371.5,-577.3495 1371.5,-522 1371.5,-522 1371.5,-522 1371.5,-306 1371.5,-265.1713 1382.4803,-219.0082 1390.6887,-190.2028"/>
<polygon fill="#c0c0c0" stroke="#c0c0c0" stroke-width="2" points="1394.1027,-190.9987 1393.5619,-180.4177 1387.3862,-189.0265 1394.1027,-190.9987"/>
</g>
<!-- 6&#45;&gt;3 -->
<g id="edge22" class="edge">
<title>6&#45;&gt;3</title>
<path fill="none" stroke="#c0c0c0" stroke-width="2" d="M658.5181,-503.8314C646.2072,-494.8779 631.1893,-483.9558 617.9063,-474.2955"/>
<polygon fill="#c0c0c0" stroke="#c0c0c0" stroke-width="2" points="619.6199,-471.214 609.4739,-468.1628 615.5027,-476.8752 619.6199,-471.214"/>
</g>
<!-- 7&#45;&gt;0 -->
<g id="edge1" class="edge">
<title>7&#45;&gt;0</title>
<path fill="none" stroke="#c0c0c0" stroke-width="2" d="M918.3686,-143.8089C903.4322,-133.5873 884.6944,-120.4216 868.5,-108 848.7231,-92.8306 845.5782,-86.7682 825.5,-72 810.0896,-60.6651 792.3578,-49.0691 777.1688,-39.5429"/>
<polygon fill="#c0c0c0" stroke="#c0c0c0" stroke-width="2" points="778.8974,-36.4963 768.5564,-34.1908 775.2026,-42.4418 778.8974,-36.4963"/>
</g>
<!-- 7&#45;&gt;25 -->
<g id="edge45" class="edge">
<title>7&#45;&gt;25</title>
<path fill="none" stroke="#c0c0c0" stroke-width="2" d="M875.4017,-149.8676C788.0037,-134.741 641.4861,-109.3822 570.5081,-97.0976"/>
<polygon fill="#c0c0c0" stroke="#c0c0c0" stroke-width="2" points="571.0506,-93.6395 560.6001,-95.3827 569.8567,-100.5369 571.0506,-93.6395"/>
</g>
<!-- 8 -->
<g id="node9" class="node">
<title>8</title>
<path fill="none" stroke="#56d87b" stroke-width="2" d="M375.5,-180C375.5,-180 277.5,-180 277.5,-180 271.5,-180 265.5,-174 265.5,-168 265.5,-168 265.5,-156 265.5,-156 265.5,-150 271.5,-144 277.5,-144 277.5,-144 375.5,-144 375.5,-144 381.5,-144 387.5,-150 387.5,-156 387.5,-156 387.5,-168 387.5,-168 387.5,-174 381.5,-180 375.5,-180"/>
<text text-anchor="middle" x="326.5" y="-159.5" font-family="sans" font-size="10.00" fill="#000000">plotQualityProfileRaw</text>
</g>
<!-- 8&#45;&gt;0 -->
<g id="edge12" class="edge">
<title>8&#45;&gt;0</title>
<path fill="none" stroke="#c0c0c0" stroke-width="2" d="M347.6838,-143.7623C372.8617,-123.085 416.9665,-89.9276 460.5,-72 543.3549,-37.8793 648.9539,-25.0327 704.1135,-20.4202"/>
<polygon fill="#c0c0c0" stroke="#c0c0c0" stroke-width="2" points="704.4376,-23.9056 714.1303,-19.6276 703.8853,-16.9274 704.4376,-23.9056"/>
</g>
<!-- 8&#45;&gt;25 -->
<g id="edge50" class="edge">
<title>8&#45;&gt;25</title>
<path fill="none" stroke="#c0c0c0" stroke-width="2" d="M377.4634,-143.9243C411.9486,-131.6931 456.883,-115.7558 488.94,-104.3858"/>
<polygon fill="#c0c0c0" stroke="#c0c0c0" stroke-width="2" points="490.1947,-107.6545 498.4494,-101.013 487.8547,-101.0572 490.1947,-107.6545"/>
</g>
<!-- 9&#45;&gt;0 -->
<g id="edge10" class="edge">
<title>9&#45;&gt;0</title>
<path fill="none" stroke="#c0c0c0" stroke-width="2" d="M741.5,-143.7623C741.5,-119.201 741.5,-75.2474 741.5,-46.3541"/>
<polygon fill="#c0c0c0" stroke="#c0c0c0" stroke-width="2" points="745.0001,-46.0896 741.5,-36.0896 738.0001,-46.0897 745.0001,-46.0896"/>
</g>
<!-- 9&#45;&gt;25 -->
<g id="edge49" class="edge">
<title>9&#45;&gt;25</title>
<path fill="none" stroke="#c0c0c0" stroke-width="2" d="M688.2771,-143.9243C651.6612,-131.4887 603.7652,-115.2221 570.1915,-103.8197"/>
<polygon fill="#c0c0c0" stroke="#c0c0c0" stroke-width="2" points="571.2867,-100.4954 560.6923,-100.5936 569.0356,-107.1236 571.2867,-100.4954"/>
</g>
<!-- 10&#45;&gt;0 -->
<g id="edge5" class="edge">
<title>10&#45;&gt;0</title>
<path fill="none" stroke="#c0c0c0" stroke-width="2" d="M483.7482,-287.7972C514.0496,-246.7923 591.8076,-145.0744 669.5,-72 680.782,-61.3886 694.122,-50.8986 706.2347,-42.027"/>
<polygon fill="#c0c0c0" stroke="#c0c0c0" stroke-width="2" points="708.3119,-44.8443 714.384,-36.1621 704.2229,-39.1627 708.3119,-44.8443"/>
</g>
<!-- 10&#45;&gt;28 -->
<g id="edge55" class="edge">
<title>10&#45;&gt;28</title>
<path fill="none" stroke="#c0c0c0" stroke-width="2" d="M451.8267,-287.8314C442.9751,-279.219 432.2514,-268.7851 422.6105,-259.4048"/>
<polygon fill="#c0c0c0" stroke="#c0c0c0" stroke-width="2" points="424.7754,-256.6279 415.1674,-252.1628 419.8939,-261.645 424.7754,-256.6279"/>
</g>
<!-- 11&#45;&gt;0 -->
<g id="edge18" class="edge">
<title>11&#45;&gt;0</title>
<path fill="none" stroke="#c0c0c0" stroke-width="2" d="M127.3452,-287.7253C116.4156,-256.8758 98.7958,-193.0391 118.5,-144 135.0248,-102.8737 147.6274,-91.3551 187.5,-72 233.8141,-49.518 586.8952,-27.0475 703.9389,-20.1473"/>
<polygon fill="#c0c0c0" stroke="#c0c0c0" stroke-width="2" points="704.4157,-23.6255 714.194,-19.547 704.0066,-16.6374 704.4157,-23.6255"/>
</g>
<!-- 12 -->
<g id="node13" class="node">
<title>12</title>
<path fill="none" stroke="#afd856" stroke-width="2" d="M59,-108C59,-108 12,-108 12,-108 6,-108 0,-102 0,-96 0,-96 0,-84 0,-84 0,-78 6,-72 12,-72 12,-72 59,-72 59,-72 65,-72 71,-78 71,-84 71,-84 71,-96 71,-96 71,-102 65,-108 59,-108"/>
<text text-anchor="middle" x="35.5" y="-87.5" font-family="sans" font-size="10.00" fill="#000000">newickTree</text>
</g>
<!-- 11&#45;&gt;12 -->
<g id="edge30" class="edge">
<title>11&#45;&gt;12</title>
<path fill="none" stroke="#c0c0c0" stroke-width="2" d="M114.0761,-287.6459C104.2604,-277.8874 93.0235,-265.1973 85.5,-252 60.7708,-208.6215 46.8598,-151.5964 40.2885,-118.059"/>
<polygon fill="#c0c0c0" stroke="#c0c0c0" stroke-width="2" points="43.6932,-117.2253 38.4084,-108.0426 36.8133,-118.5167 43.6932,-117.2253"/>
</g>
<!-- 27 -->
<g id="node28" class="node">
<title>27</title>
<path fill="none" stroke="#566bd8" stroke-width="2" d="M199,-252C199,-252 140,-252 140,-252 134,-252 128,-246 128,-240 128,-240 128,-228 128,-228 128,-222 134,-216 140,-216 140,-216 199,-216 199,-216 205,-216 211,-222 211,-228 211,-228 211,-240 211,-240 211,-246 205,-252 199,-252"/>
<text text-anchor="middle" x="169.5" y="-231.5" font-family="sans" font-size="10.00" fill="#000000">vsearchGTDB</text>
</g>
<!-- 11&#45;&gt;27 -->
<g id="edge54" class="edge">
<title>11&#45;&gt;27</title>
<path fill="none" stroke="#c0c0c0" stroke-width="2" d="M143.332,-287.8314C147.1986,-279.8771 151.8206,-270.369 156.0968,-261.5723"/>
<polygon fill="#c0c0c0" stroke="#c0c0c0" stroke-width="2" points="159.3249,-262.9371 160.5491,-252.4133 153.0293,-259.8768 159.3249,-262.9371"/>
</g>
<!-- 12&#45;&gt;0 -->
<g id="edge6" class="edge">
<title>12&#45;&gt;0</title>
<path fill="none" stroke="#c0c0c0" stroke-width="2" d="M71.218,-75.8658C75.9652,-74.3653 80.8118,-73.0181 85.5,-72 205.0106,-46.0466 583.2558,-25.7433 704.0385,-19.7849"/>
<polygon fill="#c0c0c0" stroke="#c0c0c0" stroke-width="2" points="704.4399,-23.2695 714.2568,-19.2848 704.0977,-16.2779 704.4399,-23.2695"/>
</g>
<!-- 13&#45;&gt;0 -->
<g id="edge3" class="edge">
<title>13&#45;&gt;0</title>
<path fill="none" stroke="#c0c0c0" stroke-width="2" d="M628.9949,-287.8204C630.3779,-257.111 635.6223,-193.4754 655.5,-144 670.6915,-106.1885 698.687,-68.3141 718.6084,-44.1105"/>
<polygon fill="#c0c0c0" stroke="#c0c0c0" stroke-width="2" points="721.5451,-46.0553 725.2839,-36.1421 716.1792,-41.5601 721.5451,-46.0553"/>
</g>
<!-- 13&#45;&gt;25 -->
<g id="edge51" class="edge">
<title>13&#45;&gt;25</title>
<path fill="none" stroke="#c0c0c0" stroke-width="2" d="M620.2296,-287.9555C602.8682,-250.0762 562.5375,-162.0818 542.0006,-117.274"/>
<polygon fill="#c0c0c0" stroke="#c0c0c0" stroke-width="2" points="545.1648,-115.7774 537.8165,-108.1451 538.8014,-118.694 545.1648,-115.7774"/>
</g>
<!-- 14 -->
<g id="node15" class="node">
<title>14</title>
<path fill="none" stroke="#bed856" stroke-width="2" d="M717,-396C717,-396 658,-396 658,-396 652,-396 646,-390 646,-384 646,-384 646,-372 646,-372 646,-366 652,-360 658,-360 658,-360 717,-360 717,-360 723,-360 729,-366 729,-372 729,-372 729,-384 729,-384 729,-390 723,-396 717,-396"/>
<text text-anchor="middle" x="687.5" y="-375.5" font-family="sans" font-size="10.00" fill="#000000">numSeqParse</text>
</g>
<!-- 14&#45;&gt;13 -->
<g id="edge34" class="edge">
<title>14&#45;&gt;13</title>
<path fill="none" stroke="#c0c0c0" stroke-width="2" d="M672.6118,-359.8314C665.747,-351.454 657.4699,-341.3531 649.9489,-332.1749"/>
<polygon fill="#c0c0c0" stroke="#c0c0c0" stroke-width="2" points="652.6341,-329.9297 643.5886,-324.4133 647.2197,-334.3665 652.6341,-329.9297"/>
</g>
<!-- 15 -->
<g id="node16" class="node">
<title>15</title>
<path fill="none" stroke="#d88d56" stroke-width="2" d="M725,-468C725,-468 662,-468 662,-468 656,-468 650,-462 650,-456 650,-456 650,-444 650,-444 650,-438 656,-432 662,-432 662,-432 725,-432 725,-432 731,-432 737,-438 737,-444 737,-444 737,-456 737,-456 737,-462 731,-468 725,-468"/>
<text text-anchor="middle" x="693.5" y="-447.5" font-family="sans" font-size="10.00" fill="#000000">rawReadCount</text>
</g>
<!-- 15&#45;&gt;14 -->
<g id="edge35" class="edge">
<title>15&#45;&gt;14</title>
<path fill="none" stroke="#c0c0c0" stroke-width="2" d="M691.9859,-431.8314C691.3442,-424.131 690.5812,-414.9743 689.8681,-406.4166"/>
<polygon fill="#c0c0c0" stroke="#c0c0c0" stroke-width="2" points="693.3529,-406.088 689.0344,-396.4133 686.3771,-406.6694 693.3529,-406.088"/>
</g>
<!-- 16 -->
<g id="node17" class="node">
<title>16</title>
<path fill="none" stroke="#56d8d0" stroke-width="2" d="M1480.5,-540C1480.5,-540 1436.5,-540 1436.5,-540 1430.5,-540 1424.5,-534 1424.5,-528 1424.5,-528 1424.5,-516 1424.5,-516 1424.5,-510 1430.5,-504 1436.5,-504 1436.5,-504 1480.5,-504 1480.5,-504 1486.5,-504 1492.5,-510 1492.5,-516 1492.5,-516 1492.5,-528 1492.5,-528 1492.5,-534 1486.5,-540 1480.5,-540"/>
<text text-anchor="middle" x="1458.5" y="-519.5" font-family="sans" font-size="10.00" fill="#000000">multiqcFilt</text>
</g>
<!-- 16&#45;&gt;0 -->
<g id="edge14" class="edge">
<title>16&#45;&gt;0</title>
<path fill="none" stroke="#c0c0c0" stroke-width="2" d="M1465.9226,-503.7059C1476.1965,-476.6881 1493.5,-424.3101 1493.5,-378 1493.5,-378 1493.5,-378 1493.5,-162 1493.5,-126.8703 1561.4061,-139.2239 1354.5,-72 1246.3618,-36.8658 894.2623,-22.8253 778.6515,-19.0906"/>
<polygon fill="#c0c0c0" stroke="#c0c0c0" stroke-width="2" points="778.6356,-15.5884 768.53,-18.7706 778.4143,-22.5849 778.6356,-15.5884"/>
</g>
<!-- 17&#45;&gt;16 -->
<g id="edge36" class="edge">
<title>17&#45;&gt;16</title>
<path fill="none" stroke="#c0c0c0" stroke-width="2" d="M1438.3132,-575.8314C1441.2644,-567.9617 1444.7858,-558.5712 1448.055,-549.8533"/>
<polygon fill="#c0c0c0" stroke="#c0c0c0" stroke-width="2" points="1451.3609,-551.0055 1451.595,-540.4133 1444.8066,-548.5476 1451.3609,-551.0055"/>
</g>
<!-- 18 -->
<g id="node19" class="node">
<title>18</title>
<path fill="none" stroke="#56d8a9" stroke-width="2" d="M1139.5,-108C1139.5,-108 1089.5,-108 1089.5,-108 1083.5,-108 1077.5,-102 1077.5,-96 1077.5,-96 1077.5,-84 1077.5,-84 1077.5,-78 1083.5,-72 1089.5,-72 1089.5,-72 1139.5,-72 1139.5,-72 1145.5,-72 1151.5,-78 1151.5,-84 1151.5,-84 1151.5,-96 1151.5,-96 1151.5,-102 1145.5,-108 1139.5,-108"/>
<text text-anchor="middle" x="1114.5" y="-87.5" font-family="sans" font-size="10.00" fill="#000000">multiqcRaw</text>
</g>
<!-- 18&#45;&gt;0 -->
<g id="edge13" class="edge">
<title>18&#45;&gt;0</title>
<path fill="none" stroke="#c0c0c0" stroke-width="2" d="M1077.4067,-76.0721C1072.7611,-74.5759 1068.0456,-73.1739 1063.5,-72 962.0224,-45.7938 839.157,-29.2734 778.7356,-22.1182"/>
<polygon fill="#c0c0c0" stroke="#c0c0c0" stroke-width="2" points="778.8836,-18.6118 768.5457,-20.9305 778.0732,-25.5647 778.8836,-18.6118"/>
</g>
<!-- 19 -->
<g id="node20" class="node">
<title>19</title>
<path fill="none" stroke="#68d856" stroke-width="2" d="M1227.5,-180C1227.5,-180 1183.5,-180 1183.5,-180 1177.5,-180 1171.5,-174 1171.5,-168 1171.5,-168 1171.5,-156 1171.5,-156 1171.5,-150 1177.5,-144 1183.5,-144 1183.5,-144 1227.5,-144 1227.5,-144 1233.5,-144 1239.5,-150 1239.5,-156 1239.5,-156 1239.5,-168 1239.5,-168 1239.5,-174 1233.5,-180 1227.5,-180"/>
<text text-anchor="middle" x="1205.5" y="-159.5" font-family="sans" font-size="10.00" fill="#000000">fastqcRaw</text>
</g>
<!-- 19&#45;&gt;18 -->
<g id="edge38" class="edge">
<title>19&#45;&gt;18</title>
<path fill="none" stroke="#c0c0c0" stroke-width="2" d="M1182.5369,-143.8314C1171.3285,-134.9632 1157.6791,-124.1637 1145.5561,-114.5718"/>
<polygon fill="#c0c0c0" stroke="#c0c0c0" stroke-width="2" points="1147.4697,-111.6229 1137.4558,-108.1628 1143.1263,-117.1125 1147.4697,-111.6229"/>
</g>
<!-- 20 -->
<g id="node21" class="node">
<title>20</title>
<path fill="none" stroke="#56a9d8" stroke-width="2" d="M1265,-108C1265,-108 1182,-108 1182,-108 1176,-108 1170,-102 1170,-96 1170,-96 1170,-84 1170,-84 1170,-78 1176,-72 1182,-72 1182,-72 1265,-72 1265,-72 1271,-72 1277,-78 1277,-84 1277,-84 1277,-96 1277,-96 1277,-102 1271,-108 1265,-108"/>
<text text-anchor="middle" x="1223.5" y="-87.5" font-family="sans" font-size="10.00" fill="#000000">seqkit_counts_raw</text>
</g>
<!-- 20&#45;&gt;0 -->
<g id="edge16" class="edge">
<title>20&#45;&gt;0</title>
<path fill="none" stroke="#c0c0c0" stroke-width="2" d="M1169.6756,-74.0466C1166.5824,-73.3093 1163.5081,-72.6199 1160.5,-72 1021.1679,-43.2863 852.4421,-27.0844 778.8469,-20.918"/>
<polygon fill="#c0c0c0" stroke="#c0c0c0" stroke-width="2" points="778.9475,-17.4145 768.6937,-20.0807 778.3722,-24.3908 778.9475,-17.4145"/>
</g>
<!-- 21 -->
<g id="node22" class="node">
<title>21</title>
<path fill="none" stroke="#59d856" stroke-width="2" d="M1322,-252C1322,-252 1251,-252 1251,-252 1245,-252 1239,-246 1239,-240 1239,-240 1239,-228 1239,-228 1239,-222 1245,-216 1251,-216 1251,-216 1322,-216 1322,-216 1328,-216 1334,-222 1334,-228 1334,-228 1334,-240 1334,-240 1334,-246 1328,-252 1322,-252"/>
<text text-anchor="middle" x="1286.5" y="-231.5" font-family="sans" font-size="10.00" fill="#000000">random_sample</text>
</g>
<!-- 21&#45;&gt;0 -->
<g id="edge9" class="edge">
<title>21&#45;&gt;0</title>
<path fill="none" stroke="#c0c0c0" stroke-width="2" d="M1293.386,-215.9326C1304.7203,-182.7658 1322.6581,-111.9178 1286.5,-72 1252.4552,-34.4152 896.6581,-21.9714 779.0226,-18.8677"/>
<polygon fill="#c0c0c0" stroke="#c0c0c0" stroke-width="2" points="778.8051,-15.3611 768.7188,-18.6039 778.6259,-22.3588 778.8051,-15.3611"/>
</g>
<!-- 21&#45;&gt;20 -->
<g id="edge39" class="edge">
<title>21&#45;&gt;20</title>
<path fill="none" stroke="#c0c0c0" stroke-width="2" d="M1279.1087,-215.9929C1271.5786,-197.7687 1259.4798,-168.8166 1248.5,-144 1244.6734,-135.351 1240.3865,-125.9823 1236.458,-117.5147"/>
<polygon fill="#c0c0c0" stroke="#c0c0c0" stroke-width="2" points="1239.617,-116.0073 1232.2185,-108.4236 1233.273,-118.9659 1239.617,-116.0073"/>
</g>
<!-- 21&#45;&gt;22 -->
<g id="edge40" class="edge">
<title>21&#45;&gt;22</title>
<path fill="none" stroke="#c0c0c0" stroke-width="2" d="M1238.7921,-216.2022C1212.4308,-206.368 1179.4773,-194.0744 1151.621,-183.6824"/>
<polygon fill="#c0c0c0" stroke="#c0c0c0" stroke-width="2" points="1152.5922,-180.3092 1141.9996,-180.0931 1150.1455,-186.8677 1152.5922,-180.3092"/>
</g>
<!-- 21&#45;&gt;23 -->
<g id="edge43" class="edge">
<title>21&#45;&gt;23</title>
<path fill="none" stroke="#c0c0c0" stroke-width="2" d="M1315.0147,-215.8314C1329.3342,-206.7074 1346.8624,-195.539 1362.2338,-185.7449"/>
<polygon fill="#c0c0c0" stroke="#c0c0c0" stroke-width="2" points="1364.4417,-188.4882 1370.9945,-180.1628 1360.6801,-182.5847 1364.4417,-188.4882"/>
</g>
<!-- 22&#45;&gt;0 -->
<g id="edge7" class="edge">
<title>22&#45;&gt;0</title>
<path fill="none" stroke="#c0c0c0" stroke-width="2" d="M1086.0051,-143.9308C1076.3721,-123.0892 1057.5952,-89.4589 1030.5,-72 989.3654,-45.4948 847.7236,-28.4005 779.2091,-21.4889"/>
<polygon fill="#c0c0c0" stroke="#c0c0c0" stroke-width="2" points="779.1631,-17.9674 768.8674,-20.4672 778.4748,-24.9335 779.1631,-17.9674"/>
</g>
<!-- 24 -->
<g id="node25" class="node">
<title>24</title>
<path fill="none" stroke="#567bd8" stroke-width="2" d="M1009.5,-108C1009.5,-108 889.5,-108 889.5,-108 883.5,-108 877.5,-102 877.5,-96 877.5,-96 877.5,-84 877.5,-84 877.5,-78 883.5,-72 889.5,-72 889.5,-72 1009.5,-72 1009.5,-72 1015.5,-72 1021.5,-78 1021.5,-84 1021.5,-84 1021.5,-96 1021.5,-96 1021.5,-102 1015.5,-108 1009.5,-108"/>
<text text-anchor="middle" x="949.5" y="-87.5" font-family="sans" font-size="10.00" fill="#000000">reads_Length_Distribution</text>
</g>
<!-- 22&#45;&gt;24 -->
<g id="edge44" class="edge">
<title>22&#45;&gt;24</title>
<path fill="none" stroke="#c0c0c0" stroke-width="2" d="M1057.1627,-143.8314C1038.1604,-134.3302 1014.7242,-122.6121 994.5748,-112.5374"/>
<polygon fill="#c0c0c0" stroke="#c0c0c0" stroke-width="2" points="996.0855,-109.3797 985.576,-108.038 992.955,-115.6407 996.0855,-109.3797"/>
</g>
<!-- 23&#45;&gt;0 -->
<g id="edge8" class="edge">
<title>23&#45;&gt;0</title>
<path fill="none" stroke="#c0c0c0" stroke-width="2" d="M1389.2159,-143.7884C1376.0818,-122.4735 1351.2075,-88.0527 1319.5,-72 1271.3307,-47.6131 898.8315,-26.2174 778.707,-19.8918"/>
<polygon fill="#c0c0c0" stroke="#c0c0c0" stroke-width="2" points="778.7051,-16.387 768.5361,-19.3606 778.3399,-23.3775 778.7051,-16.387"/>
</g>
<!-- 24&#45;&gt;0 -->
<g id="edge19" class="edge">
<title>24&#45;&gt;0</title>
<path fill="none" stroke="#c0c0c0" stroke-width="2" d="M897.2813,-71.9243C860.2018,-59.0891 811.3322,-42.1727 778.2923,-30.7358"/>
<polygon fill="#c0c0c0" stroke="#c0c0c0" stroke-width="2" points="779.1721,-27.3366 768.5773,-27.3729 776.8823,-33.9515 779.1721,-27.3366"/>
</g>
<!-- 25&#45;&gt;0 -->
<g id="edge17" class="edge">
<title>25&#45;&gt;0</title>
<path fill="none" stroke="#c0c0c0" stroke-width="2" d="M560.7813,-79.3762C599.1936,-66.3305 664.2406,-44.239 704.9265,-30.4212"/>
<polygon fill="#c0c0c0" stroke="#c0c0c0" stroke-width="2" points="706.1218,-33.7117 714.465,-27.1817 703.8707,-27.0835 706.1218,-33.7117"/>
</g>
<!-- 26 -->
<g id="node27" class="node">
<title>26</title>
<path fill="none" stroke="#56c1d8" stroke-width="2" d="M197,-180C197,-180 140,-180 140,-180 134,-180 128,-174 128,-168 128,-168 128,-156 128,-156 128,-150 134,-144 140,-144 140,-144 197,-144 197,-144 203,-144 209,-150 209,-156 209,-156 209,-168 209,-168 209,-174 203,-180 197,-180"/>
<text text-anchor="middle" x="168.5" y="-159.5" font-family="sans" font-size="10.00" fill="#000000">vsearchParse</text>
</g>
<!-- 26&#45;&gt;0 -->
<g id="edge15" class="edge">
<title>26&#45;&gt;0</title>
<path fill="none" stroke="#c0c0c0" stroke-width="2" d="M174.0382,-143.9792C181.5596,-122.8522 197.1758,-88.6163 223.5,-72 264.0072,-46.431 592.4034,-26.1908 704.3087,-19.9779"/>
<polygon fill="#c0c0c0" stroke="#c0c0c0" stroke-width="2" points="704.6527,-23.4644 714.4455,-19.4208 704.2684,-16.4749 704.6527,-23.4644"/>
</g>
<!-- 26&#45;&gt;25 -->
<g id="edge48" class="edge">
<title>26&#45;&gt;25</title>
<path fill="none" stroke="#c0c0c0" stroke-width="2" d="M209.2341,-153.6107C224.1046,-150.5632 241.0593,-147.1062 256.5,-144 338.649,-127.4739 434.7928,-108.5547 488.2629,-98.0704"/>
<polygon fill="#c0c0c0" stroke="#c0c0c0" stroke-width="2" points="489.2311,-101.4473 498.3712,-96.0892 487.8847,-94.578 489.2311,-101.4473"/>
</g>
<!-- 27&#45;&gt;26 -->
<g id="edge53" class="edge">
<title>27&#45;&gt;26</title>
<path fill="none" stroke="#c0c0c0" stroke-width="2" d="M169.2477,-215.8314C169.1407,-208.131 169.0135,-198.9743 168.8947,-190.4166"/>
<polygon fill="#c0c0c0" stroke="#c0c0c0" stroke-width="2" points="172.3944,-190.3637 168.7557,-180.4133 165.3951,-190.4609 172.3944,-190.3637"/>
</g>
<!-- 28&#45;&gt;0 -->
<g id="edge4" class="edge">
<title>28&#45;&gt;0</title>
<path fill="none" stroke="#c0c0c0" stroke-width="2" d="M330.8919,-216.4778C299.0374,-206.5095 265.6745,-193.372 256.5,-180 247.4481,-166.8067 248.2059,-157.6824 256.5,-144 292.3611,-84.8412 328.7812,-93.6061 394.5,-72 503.4052,-36.1957 639.532,-23.8554 704.1384,-19.8266"/>
<polygon fill="#c0c0c0" stroke="#c0c0c0" stroke-width="2" points="704.4706,-23.3132 714.2464,-19.2284 704.057,-16.3254 704.4706,-23.3132"/>
</g>
<!-- 28&#45;&gt;25 -->
<g id="edge46" class="edge">
<title>28&#45;&gt;25</title>
<path fill="none" stroke="#c0c0c0" stroke-width="2" d="M451.8697,-215.9452C470.196,-207.5637 489.2654,-195.8555 502.5,-180 517.0531,-162.5648 523.7626,-137.476 526.8557,-118.2144"/>
<polygon fill="#c0c0c0" stroke="#c0c0c0" stroke-width="2" points="530.338,-118.5813 528.2288,-108.1986 523.4029,-117.6305 530.338,-118.5813"/>
</g>
<!-- 28&#45;&gt;26 -->
<g id="edge52" class="edge">
<title>28&#45;&gt;26</title>
<path fill="none" stroke="#c0c0c0" stroke-width="2" d="M337.9802,-215.9526C304.4357,-205.5528 261.5615,-192.1678 223.5,-180 221.8881,-179.4847 220.2502,-178.9593 218.5967,-178.4273"/>
<polygon fill="#c0c0c0" stroke="#c0c0c0" stroke-width="2" points="219.6204,-175.0799 209.0286,-175.3337 217.4668,-181.7404 219.6204,-175.0799"/>
</g>
</g>
</svg>
