<?xml version="1.0" encoding="UTF-8" standalone="no"?>
<!DOCTYPE svg PUBLIC "-//W3C//DTD SVG 1.1//EN"
 "http://www.w3.org/Graphics/SVG/1.1/DTD/svg11.dtd">
<!-- Generated by graphviz version 2.40.1 (0)
 -->
<!-- Title: snakemake_dag Pages: 1 -->
<svg width="1643pt" height="836pt"
 viewBox="0.00 0.00 1642.50 836.00" xmlns="http://www.w3.org/2000/svg" xmlns:xlink="http://www.w3.org/1999/xlink">
<g id="graph0" class="graph" transform="scale(1 1) rotate(0) translate(4 832)">
<title>snakemake_dag</title>
<polygon fill="#ffffff" stroke="transparent" points="-4,4 -4,-832 1638.5,-832 1638.5,4 -4,4"/>
<!-- 0 -->
<g id="node1" class="node">
<title>0</title>
<path fill="none" stroke="#56d89a" stroke-width="2" d="M941.5,-36C941.5,-36 911.5,-36 911.5,-36 905.5,-36 899.5,-30 899.5,-24 899.5,-24 899.5,-12 899.5,-12 899.5,-6 905.5,0 911.5,0 911.5,0 941.5,0 941.5,0 947.5,0 953.5,-6 953.5,-12 953.5,-12 953.5,-24 953.5,-24 953.5,-30 947.5,-36 941.5,-36"/>
<text text-anchor="middle" x="926.5" y="-15.5" font-family="sans" font-size="10.00" fill="#000000">all</text>
</g>
<!-- 1 -->
<g id="node2" class="node">
<title>1</title>
<path fill="none" stroke="#56d85b" stroke-width="2" d="M325.5,-180C325.5,-180 261.5,-180 261.5,-180 255.5,-180 249.5,-174 249.5,-168 249.5,-168 249.5,-156 249.5,-156 249.5,-150 255.5,-144 261.5,-144 261.5,-144 325.5,-144 325.5,-144 331.5,-144 337.5,-150 337.5,-156 337.5,-156 337.5,-168 337.5,-168 337.5,-174 331.5,-180 325.5,-180"/>
<text text-anchor="middle" x="293.5" y="-159.5" font-family="sans" font-size="10.00" fill="#000000">plotASVLength</text>
</g>
<!-- 1&#45;&gt;0 -->
<g id="edge14" class="edge">
<title>1&#45;&gt;0</title>
<path fill="none" stroke="#c0c0c0" stroke-width="2" d="M316.8728,-143.9646C345.6388,-122.8233 396.8011,-88.5733 446.5,-72 528.8203,-44.5484 791.7507,-26.1899 889.467,-20.1635"/>
<polygon fill="#c0c0c0" stroke="#c0c0c0" stroke-width="2" points="889.7051,-23.6556 899.4738,-19.5541 889.2795,-16.6686 889.7051,-23.6556"/>
</g>
<!-- 27 -->
<g id="node28" class="node">
<title>27</title>
<path fill="none" stroke="#80d856" stroke-width="2" d="M322.5,-108C322.5,-108 284.5,-108 284.5,-108 278.5,-108 272.5,-102 272.5,-96 272.5,-96 272.5,-84 272.5,-84 272.5,-78 278.5,-72 284.5,-72 284.5,-72 322.5,-72 322.5,-72 328.5,-72 334.5,-78 334.5,-84 334.5,-84 334.5,-96 334.5,-96 334.5,-102 328.5,-108 322.5,-108"/>
<text text-anchor="middle" x="303.5" y="-87.5" font-family="sans" font-size="10.00" fill="#000000">qc_report</text>
</g>
<!-- 1&#45;&gt;27 -->
<g id="edge55" class="edge">
<title>1&#45;&gt;27</title>
<path fill="none" stroke="#c0c0c0" stroke-width="2" d="M296.0234,-143.8314C297.0929,-136.131 298.3647,-126.9743 299.5532,-118.4166"/>
<polygon fill="#c0c0c0" stroke="#c0c0c0" stroke-width="2" points="303.0336,-118.7997 300.9426,-108.4133 296.1001,-117.8367 303.0336,-118.7997"/>
</g>
<!-- 2 -->
<g id="node3" class="node">
<title>2</title>
<path fill="none" stroke="#afd856" stroke-width="2" d="M638,-468C638,-468 561,-468 561,-468 555,-468 549,-462 549,-456 549,-456 549,-444 549,-444 549,-438 555,-432 561,-432 561,-432 638,-432 638,-432 644,-432 650,-438 650,-444 650,-444 650,-456 650,-456 650,-462 644,-468 638,-468"/>
<text text-anchor="middle" x="599.5" y="-447.5" font-family="sans" font-size="10.00" fill="#000000">removeChimeras</text>
</g>
<!-- 2&#45;&gt;1 -->
<g id="edge24" class="edge">
<title>2&#45;&gt;1</title>
<path fill="none" stroke="#c0c0c0" stroke-width="2" d="M560.7652,-431.9073C542.5067,-422.4788 520.9545,-409.9966 503.5,-396 423.0869,-331.5172 347.0453,-234.8471 312.6773,-188.5573"/>
<polygon fill="#c0c0c0" stroke="#c0c0c0" stroke-width="2" points="315.3113,-186.2317 306.5617,-180.2571 309.6758,-190.384 315.3113,-186.2317"/>
</g>
<!-- 11 -->
<g id="node12" class="node">
<title>11</title>
<path fill="none" stroke="#d8a456" stroke-width="2" d="M993.5,-252C993.5,-252 963.5,-252 963.5,-252 957.5,-252 951.5,-246 951.5,-240 951.5,-240 951.5,-228 951.5,-228 951.5,-222 957.5,-216 963.5,-216 963.5,-216 993.5,-216 993.5,-216 999.5,-216 1005.5,-222 1005.5,-228 1005.5,-228 1005.5,-240 1005.5,-240 1005.5,-246 999.5,-252 993.5,-252"/>
<text text-anchor="middle" x="978.5" y="-231.5" font-family="sans" font-size="10.00" fill="#000000">IDtaxa</text>
</g>
<!-- 2&#45;&gt;11 -->
<g id="edge33" class="edge">
<title>2&#45;&gt;11</title>
<path fill="none" stroke="#c0c0c0" stroke-width="2" d="M631.1614,-431.9555C701.1119,-392.0893 868.4621,-296.7129 942.3668,-254.5931"/>
<polygon fill="#c0c0c0" stroke="#c0c0c0" stroke-width="2" points="944.3667,-257.4819 951.3217,-249.4895 940.9006,-251.4002 944.3667,-257.4819"/>
</g>
<!-- 12 -->
<g id="node13" class="node">
<title>12</title>
<path fill="none" stroke="#5682d8" stroke-width="2" d="M559,-396C559,-396 524,-396 524,-396 518,-396 512,-390 512,-384 512,-384 512,-372 512,-372 512,-366 518,-360 524,-360 524,-360 559,-360 559,-360 565,-360 571,-366 571,-372 571,-372 571,-384 571,-384 571,-390 565,-396 559,-396"/>
<text text-anchor="middle" x="541.5" y="-375.5" font-family="sans" font-size="10.00" fill="#000000">RDPtaxa</text>
</g>
<!-- 2&#45;&gt;12 -->
<g id="edge34" class="edge">
<title>2&#45;&gt;12</title>
<path fill="none" stroke="#c0c0c0" stroke-width="2" d="M584.8642,-431.8314C578.1839,-423.5386 570.1432,-413.557 562.8096,-404.4533"/>
<polygon fill="#c0c0c0" stroke="#c0c0c0" stroke-width="2" points="565.3319,-402.0052 556.3329,-396.4133 559.8806,-406.3965 565.3319,-402.0052"/>
</g>
<!-- 13 -->
<g id="node14" class="node">
<title>13</title>
<path fill="none" stroke="#d89556" stroke-width="2" d="M1027.5,-396C1027.5,-396 969.5,-396 969.5,-396 963.5,-396 957.5,-390 957.5,-384 957.5,-384 957.5,-372 957.5,-372 957.5,-366 963.5,-360 969.5,-360 969.5,-360 1027.5,-360 1027.5,-360 1033.5,-360 1039.5,-366 1039.5,-372 1039.5,-372 1039.5,-384 1039.5,-384 1039.5,-390 1033.5,-396 1027.5,-396"/>
<text text-anchor="middle" x="998.5" y="-375.5" font-family="sans" font-size="10.00" fill="#000000">multipleAlign</text>
</g>
<!-- 2&#45;&gt;13 -->
<g id="edge35" class="edge">
<title>2&#45;&gt;13</title>
<path fill="none" stroke="#c0c0c0" stroke-width="2" d="M650.0336,-440.8812C726.4955,-427.0835 870.7856,-401.0462 947.514,-387.2005"/>
<polygon fill="#c0c0c0" stroke="#c0c0c0" stroke-width="2" points="948.2085,-390.6318 957.428,-385.4115 946.9654,-383.743 948.2085,-390.6318"/>
</g>
<!-- 15 -->
<g id="node16" class="node">
<title>15</title>
<path fill="none" stroke="#9fd856" stroke-width="2" d="M426.5,-396C426.5,-396 334.5,-396 334.5,-396 328.5,-396 322.5,-390 322.5,-384 322.5,-384 322.5,-372 322.5,-372 322.5,-366 328.5,-360 334.5,-360 334.5,-360 426.5,-360 426.5,-360 432.5,-360 438.5,-366 438.5,-372 438.5,-372 438.5,-384 438.5,-384 438.5,-390 432.5,-396 426.5,-396"/>
<text text-anchor="middle" x="380.5" y="-375.5" font-family="sans" font-size="10.00" fill="#000000">combineReadCounts</text>
</g>
<!-- 2&#45;&gt;15 -->
<g id="edge37" class="edge">
<title>2&#45;&gt;15</title>
<path fill="none" stroke="#c0c0c0" stroke-width="2" d="M548.982,-433.3913C518.0547,-423.2235 478.1799,-410.1139 444.9866,-399.2011"/>
<polygon fill="#c0c0c0" stroke="#c0c0c0" stroke-width="2" points="445.9601,-395.8369 435.3672,-396.0385 443.7738,-402.4867 445.9601,-395.8369"/>
</g>
<!-- 28 -->
<g id="node29" class="node">
<title>28</title>
<path fill="none" stroke="#5673d8" stroke-width="2" d="M653,-324C653,-324 546,-324 546,-324 540,-324 534,-318 534,-312 534,-312 534,-300 534,-300 534,-294 540,-288 546,-288 546,-288 653,-288 653,-288 659,-288 665,-294 665,-300 665,-300 665,-312 665,-312 665,-318 659,-324 653,-324"/>
<text text-anchor="middle" x="599.5" y="-303.5" font-family="sans" font-size="10.00" fill="#000000">combining_annotations</text>
</g>
<!-- 2&#45;&gt;28 -->
<g id="edge56" class="edge">
<title>2&#45;&gt;28</title>
<path fill="none" stroke="#c0c0c0" stroke-width="2" d="M599.5,-431.7623C599.5,-407.201 599.5,-363.2474 599.5,-334.3541"/>
<polygon fill="#c0c0c0" stroke="#c0c0c0" stroke-width="2" points="603.0001,-334.0896 599.5,-324.0896 596.0001,-334.0897 603.0001,-334.0896"/>
</g>
<!-- 3 -->
<g id="node4" class="node">
<title>3</title>
<path fill="none" stroke="#5692d8" stroke-width="2" d="M634.5,-540C634.5,-540 564.5,-540 564.5,-540 558.5,-540 552.5,-534 552.5,-528 552.5,-528 552.5,-516 552.5,-516 552.5,-510 558.5,-504 564.5,-504 564.5,-504 634.5,-504 634.5,-504 640.5,-504 646.5,-510 646.5,-516 646.5,-516 646.5,-528 646.5,-528 646.5,-534 640.5,-540 634.5,-540"/>
<text text-anchor="middle" x="599.5" y="-519.5" font-family="sans" font-size="10.00" fill="#000000">generateSeqtab</text>
</g>
<!-- 3&#45;&gt;2 -->
<g id="edge25" class="edge">
<title>3&#45;&gt;2</title>
<path fill="none" stroke="#c0c0c0" stroke-width="2" d="M599.5,-503.8314C599.5,-496.131 599.5,-486.9743 599.5,-478.4166"/>
<polygon fill="#c0c0c0" stroke="#c0c0c0" stroke-width="2" points="603.0001,-478.4132 599.5,-468.4133 596.0001,-478.4133 603.0001,-478.4132"/>
</g>
<!-- 3&#45;&gt;15 -->
<g id="edge39" class="edge">
<title>3&#45;&gt;15</title>
<path fill="none" stroke="#c0c0c0" stroke-width="2" d="M579.5446,-503.7743C568.1053,-493.3169 553.4834,-479.9338 540.5,-468 523.1328,-452.0368 521.1979,-444.9784 501.5,-432 482.5954,-419.5442 460.3436,-408.6848 440.112,-400.035"/>
<polygon fill="#c0c0c0" stroke="#c0c0c0" stroke-width="2" points="441.2496,-396.7172 430.6731,-396.0941 438.5526,-403.1768 441.2496,-396.7172"/>
</g>
<!-- 4 -->
<g id="node5" class="node">
<title>4</title>
<path fill="none" stroke="#61d856" stroke-width="2" d="M697,-684C697,-684 650,-684 650,-684 644,-684 638,-678 638,-672 638,-672 638,-660 638,-660 638,-654 644,-648 650,-648 650,-648 697,-648 697,-648 703,-648 709,-654 709,-660 709,-660 709,-672 709,-672 709,-678 703,-684 697,-684"/>
<text text-anchor="middle" x="673.5" y="-663.5" font-family="sans" font-size="10.00" fill="#000000">dada2Filter</text>
</g>
<!-- 4&#45;&gt;0 -->
<g id="edge13" class="edge">
<title>4&#45;&gt;0</title>
<path fill="none" stroke="#c0c0c0" stroke-width="2" d="M709.127,-662.9293C819.3612,-652.4582 1147.5,-613.5957 1147.5,-522 1147.5,-522 1147.5,-522 1147.5,-162 1147.5,-75.2415 1026.4636,-38.0291 963.5371,-24.5451"/>
<polygon fill="#c0c0c0" stroke="#c0c0c0" stroke-width="2" points="964.0979,-21.0874 953.5989,-22.5093 962.6931,-27.945 964.0979,-21.0874"/>
</g>
<!-- 4&#45;&gt;3 -->
<g id="edge27" class="edge">
<title>4&#45;&gt;3</title>
<path fill="none" stroke="#c0c0c0" stroke-width="2" d="M672.7249,-647.6845C671.2389,-628.7015 666.9328,-598.6871 654.5,-576 648.6308,-565.29 639.9561,-555.3531 631.2222,-546.9993"/>
<polygon fill="#c0c0c0" stroke="#c0c0c0" stroke-width="2" points="633.3591,-544.2123 623.6007,-540.086 628.656,-549.397 633.3591,-544.2123"/>
</g>
<!-- 7 -->
<g id="node8" class="node">
<title>7</title>
<path fill="none" stroke="#56a2d8" stroke-width="2" d="M633.5,-612C633.5,-612 565.5,-612 565.5,-612 559.5,-612 553.5,-606 553.5,-600 553.5,-600 553.5,-588 553.5,-588 553.5,-582 559.5,-576 565.5,-576 565.5,-576 633.5,-576 633.5,-576 639.5,-576 645.5,-582 645.5,-588 645.5,-588 645.5,-600 645.5,-600 645.5,-606 639.5,-612 633.5,-612"/>
<text text-anchor="middle" x="599.5" y="-591.5" font-family="sans" font-size="10.00" fill="#000000">learnErrorRates</text>
</g>
<!-- 4&#45;&gt;7 -->
<g id="edge30" class="edge">
<title>4&#45;&gt;7</title>
<path fill="none" stroke="#c0c0c0" stroke-width="2" d="M654.8267,-647.8314C645.9751,-639.219 635.2514,-628.7851 625.6105,-619.4048"/>
<polygon fill="#c0c0c0" stroke="#c0c0c0" stroke-width="2" points="627.7754,-616.6279 618.1674,-612.1628 622.8939,-621.645 627.7754,-616.6279"/>
</g>
<!-- 10 -->
<g id="node11" class="node">
<title>10</title>
<path fill="none" stroke="#d86656" stroke-width="2" d="M143,-180C143,-180 12,-180 12,-180 6,-180 0,-174 0,-168 0,-168 0,-156 0,-156 0,-150 6,-144 12,-144 12,-144 143,-144 143,-144 149,-144 155,-150 155,-156 155,-156 155,-168 155,-168 155,-174 149,-180 143,-180"/>
<text text-anchor="middle" x="77.5" y="-159.5" font-family="sans" font-size="10.00" fill="#000000">plotQualityProfileAfterdada2</text>
</g>
<!-- 4&#45;&gt;10 -->
<g id="edge32" class="edge">
<title>4&#45;&gt;10</title>
<path fill="none" stroke="#c0c0c0" stroke-width="2" d="M637.918,-664.5808C514.379,-658.7007 111.5,-631.1568 111.5,-522 111.5,-522 111.5,-522 111.5,-306 111.5,-264.8199 98.1668,-218.7455 88.1995,-190.0555"/>
<polygon fill="#c0c0c0" stroke="#c0c0c0" stroke-width="2" points="91.3773,-188.5477 84.7105,-180.3133 84.7871,-190.9079 91.3773,-188.5477"/>
</g>
<!-- 4&#45;&gt;15 -->
<g id="edge38" class="edge">
<title>4&#45;&gt;15</title>
<path fill="none" stroke="#c0c0c0" stroke-width="2" d="M637.9318,-661.0191C577.8102,-650.5355 457.1202,-620.1559 400.5,-540 372.4215,-500.2499 373.0148,-440.9278 376.4476,-406.1814"/>
<polygon fill="#c0c0c0" stroke="#c0c0c0" stroke-width="2" points="379.9262,-406.5667 377.5755,-396.2359 372.9708,-405.7778 379.9262,-406.5667"/>
</g>
<!-- 24 -->
<g id="node25" class="node">
<title>24</title>
<path fill="none" stroke="#56d87b" stroke-width="2" d="M1308,-180C1308,-180 1213,-180 1213,-180 1207,-180 1201,-174 1201,-168 1201,-168 1201,-156 1201,-156 1201,-150 1207,-144 1213,-144 1213,-144 1308,-144 1308,-144 1314,-144 1320,-150 1320,-156 1320,-156 1320,-168 1320,-168 1320,-174 1314,-180 1308,-180"/>
<text text-anchor="middle" x="1260.5" y="-159.5" font-family="sans" font-size="10.00" fill="#000000">seqkit_counts_dada2</text>
</g>
<!-- 4&#45;&gt;24 -->
<g id="edge47" class="edge">
<title>4&#45;&gt;24</title>
<path fill="none" stroke="#c0c0c0" stroke-width="2" d="M709.1036,-663.7689C814.9624,-656.8993 1122.817,-635.1292 1161.5,-612 1203.189,-587.0734 1223.5,-570.5727 1223.5,-522 1223.5,-522 1223.5,-522 1223.5,-306 1223.5,-264.4385 1238.1372,-218.1923 1248.999,-189.5961"/>
<polygon fill="#c0c0c0" stroke="#c0c0c0" stroke-width="2" points="1252.2698,-190.8419 1252.6533,-180.254 1245.7508,-188.2919 1252.2698,-190.8419"/>
</g>
<!-- 5 -->
<g id="node6" class="node">
<title>5</title>
<path fill="none" stroke="#d8d356" stroke-width="2" d="M1144,-756C1144,-756 1095,-756 1095,-756 1089,-756 1083,-750 1083,-744 1083,-744 1083,-732 1083,-732 1083,-726 1089,-720 1095,-720 1095,-720 1144,-720 1144,-720 1150,-720 1156,-726 1156,-732 1156,-732 1156,-744 1156,-744 1156,-750 1150,-756 1144,-756"/>
<text text-anchor="middle" x="1119.5" y="-735.5" font-family="sans" font-size="10.00" fill="#000000">cutAdaptQc</text>
</g>
<!-- 5&#45;&gt;4 -->
<g id="edge28" class="edge">
<title>5&#45;&gt;4</title>
<path fill="none" stroke="#c0c0c0" stroke-width="2" d="M1082.6225,-732.0467C1001.5177,-718.9535 807.8376,-687.6868 719.198,-673.3773"/>
<polygon fill="#c0c0c0" stroke="#c0c0c0" stroke-width="2" points="719.6067,-669.898 709.1767,-671.7595 718.4911,-676.8085 719.6067,-669.898"/>
</g>
<!-- 8 -->
<g id="node9" class="node">
<title>8</title>
<path fill="none" stroke="#bed856" stroke-width="2" d="M699.5,-180C699.5,-180 583.5,-180 583.5,-180 577.5,-180 571.5,-174 571.5,-168 571.5,-168 571.5,-156 571.5,-156 571.5,-150 577.5,-144 583.5,-144 583.5,-144 699.5,-144 699.5,-144 705.5,-144 711.5,-150 711.5,-156 711.5,-156 711.5,-168 711.5,-168 711.5,-174 705.5,-180 699.5,-180"/>
<text text-anchor="middle" x="641.5" y="-159.5" font-family="sans" font-size="10.00" fill="#000000">plotQualityProfileAfterQC</text>
</g>
<!-- 5&#45;&gt;8 -->
<g id="edge31" class="edge">
<title>5&#45;&gt;8</title>
<path fill="none" stroke="#c0c0c0" stroke-width="2" d="M1082.7919,-729.6947C998.7383,-709.6155 799.5,-655.5306 799.5,-594 799.5,-594 799.5,-594 799.5,-306 799.5,-248.362 741.3534,-207.661 695.6087,-184.5594"/>
<polygon fill="#c0c0c0" stroke="#c0c0c0" stroke-width="2" points="696.875,-181.2827 686.3538,-180.0356 693.8009,-187.5716 696.875,-181.2827"/>
</g>
<!-- 19 -->
<g id="node20" class="node">
<title>19</title>
<path fill="none" stroke="#56c1d8" stroke-width="2" d="M1573,-684C1573,-684 1536,-684 1536,-684 1530,-684 1524,-678 1524,-672 1524,-672 1524,-660 1524,-660 1524,-654 1530,-648 1536,-648 1536,-648 1573,-648 1573,-648 1579,-648 1585,-654 1585,-660 1585,-660 1585,-672 1585,-672 1585,-678 1579,-684 1573,-684"/>
<text text-anchor="middle" x="1554.5" y="-663.5" font-family="sans" font-size="10.00" fill="#000000">fastqcFilt</text>
</g>
<!-- 5&#45;&gt;19 -->
<g id="edge43" class="edge">
<title>5&#45;&gt;19</title>
<path fill="none" stroke="#c0c0c0" stroke-width="2" d="M1156.2599,-735.7839C1225.9518,-730.951 1381.6735,-717.123 1508.5,-684 1510.3669,-683.5124 1512.261,-682.9715 1514.1631,-682.3904"/>
<polygon fill="#c0c0c0" stroke="#c0c0c0" stroke-width="2" points="1515.2814,-685.707 1523.651,-679.2107 1513.0571,-679.0698 1515.2814,-685.707"/>
</g>
<!-- 25 -->
<g id="node26" class="node">
<title>25</title>
<path fill="none" stroke="#5663d8" stroke-width="2" d="M1571.5,-180C1571.5,-180 1463.5,-180 1463.5,-180 1457.5,-180 1451.5,-174 1451.5,-168 1451.5,-168 1451.5,-156 1451.5,-156 1451.5,-150 1457.5,-144 1463.5,-144 1463.5,-144 1571.5,-144 1571.5,-144 1577.5,-144 1583.5,-150 1583.5,-156 1583.5,-156 1583.5,-168 1583.5,-168 1583.5,-174 1577.5,-180 1571.5,-180"/>
<text text-anchor="middle" x="1517.5" y="-159.5" font-family="sans" font-size="10.00" fill="#000000">seqkit_counts_cutadapt</text>
</g>
<!-- 5&#45;&gt;25 -->
<g id="edge49" class="edge">
<title>5&#45;&gt;25</title>
<path fill="none" stroke="#c0c0c0" stroke-width="2" d="M1156.1394,-732.0069C1250.4991,-715.5423 1494.5,-666.0057 1494.5,-594 1494.5,-594 1494.5,-594 1494.5,-306 1494.5,-265.1884 1503.62,-218.6758 1510.3743,-189.8247"/>
<polygon fill="#c0c0c0" stroke="#c0c0c0" stroke-width="2" points="1513.7925,-190.5796 1512.7344,-180.0377 1506.9876,-188.9385 1513.7925,-190.5796"/>
</g>
<!-- 6 -->
<g id="node7" class="node">
<title>6</title>
<path fill="none" stroke="#56b1d8" stroke-width="2" d="M1137.5,-828C1137.5,-828 1101.5,-828 1101.5,-828 1095.5,-828 1089.5,-822 1089.5,-816 1089.5,-816 1089.5,-804 1089.5,-804 1089.5,-798 1095.5,-792 1101.5,-792 1101.5,-792 1137.5,-792 1137.5,-792 1143.5,-792 1149.5,-798 1149.5,-804 1149.5,-804 1149.5,-816 1149.5,-816 1149.5,-822 1143.5,-828 1137.5,-828"/>
<text text-anchor="middle" x="1119.5" y="-807.5" font-family="sans" font-size="10.00" fill="#000000">cutAdapt</text>
</g>
<!-- 6&#45;&gt;5 -->
<g id="edge29" class="edge">
<title>6&#45;&gt;5</title>
<path fill="none" stroke="#c0c0c0" stroke-width="2" d="M1119.5,-791.8314C1119.5,-784.131 1119.5,-774.9743 1119.5,-766.4166"/>
<polygon fill="#c0c0c0" stroke="#c0c0c0" stroke-width="2" points="1123.0001,-766.4132 1119.5,-756.4133 1116.0001,-766.4133 1123.0001,-766.4132"/>
</g>
<!-- 7&#45;&gt;3 -->
<g id="edge26" class="edge">
<title>7&#45;&gt;3</title>
<path fill="none" stroke="#c0c0c0" stroke-width="2" d="M599.5,-575.8314C599.5,-568.131 599.5,-558.9743 599.5,-550.4166"/>
<polygon fill="#c0c0c0" stroke="#c0c0c0" stroke-width="2" points="603.0001,-550.4132 599.5,-540.4133 596.0001,-550.4133 603.0001,-550.4132"/>
</g>
<!-- 8&#45;&gt;0 -->
<g id="edge9" class="edge">
<title>8&#45;&gt;0</title>
<path fill="none" stroke="#c0c0c0" stroke-width="2" d="M651.1556,-143.8595C663.0619,-123.2736 685.2378,-90.2019 713.5,-72 768.1342,-36.8135 844.3694,-24.5443 889.2687,-20.2731"/>
<polygon fill="#c0c0c0" stroke="#c0c0c0" stroke-width="2" points="889.7752,-23.7425 899.4358,-19.3924 889.171,-16.7686 889.7752,-23.7425"/>
</g>
<!-- 8&#45;&gt;27 -->
<g id="edge51" class="edge">
<title>8&#45;&gt;27</title>
<path fill="none" stroke="#c0c0c0" stroke-width="2" d="M571.4662,-147.0816C503.0214,-132.5016 401.1379,-110.7986 344.7649,-98.7902"/>
<polygon fill="#c0c0c0" stroke="#c0c0c0" stroke-width="2" points="345.2965,-95.3249 334.7867,-96.6646 343.8381,-102.1713 345.2965,-95.3249"/>
</g>
<!-- 9 -->
<g id="node10" class="node">
<title>9</title>
<path fill="none" stroke="#d87556" stroke-width="2" d="M465.5,-180C465.5,-180 367.5,-180 367.5,-180 361.5,-180 355.5,-174 355.5,-168 355.5,-168 355.5,-156 355.5,-156 355.5,-150 361.5,-144 367.5,-144 367.5,-144 465.5,-144 465.5,-144 471.5,-144 477.5,-150 477.5,-156 477.5,-156 477.5,-168 477.5,-168 477.5,-174 471.5,-180 465.5,-180"/>
<text text-anchor="middle" x="416.5" y="-159.5" font-family="sans" font-size="10.00" fill="#000000">plotQualityProfileRaw</text>
</g>
<!-- 9&#45;&gt;0 -->
<g id="edge2" class="edge">
<title>9&#45;&gt;0</title>
<path fill="none" stroke="#c0c0c0" stroke-width="2" d="M425.9309,-143.9636C438.0369,-122.8213 461.1525,-88.5703 491.5,-72 559.8334,-34.6886 796.8278,-22.524 889.2162,-19.1438"/>
<polygon fill="#c0c0c0" stroke="#c0c0c0" stroke-width="2" points="889.3651,-22.6408 899.2358,-18.7911 889.1188,-15.6451 889.3651,-22.6408"/>
</g>
<!-- 9&#45;&gt;27 -->
<g id="edge54" class="edge">
<title>9&#45;&gt;27</title>
<path fill="none" stroke="#c0c0c0" stroke-width="2" d="M387.9853,-143.8314C373.6658,-134.7074 356.1376,-123.539 340.7662,-113.7449"/>
<polygon fill="#c0c0c0" stroke="#c0c0c0" stroke-width="2" points="342.3199,-110.5847 332.0055,-108.1628 338.5583,-116.4882 342.3199,-110.5847"/>
</g>
<!-- 10&#45;&gt;0 -->
<g id="edge1" class="edge">
<title>10&#45;&gt;0</title>
<path fill="none" stroke="#c0c0c0" stroke-width="2" d="M89.9442,-143.6304C105.6563,-122.16 134.8602,-87.5861 169.5,-72 235.5103,-42.2987 745.9915,-23.7986 889.2349,-19.155"/>
<polygon fill="#c0c0c0" stroke="#c0c0c0" stroke-width="2" points="889.4037,-22.6514 899.2863,-18.8324 889.1791,-15.655 889.4037,-22.6514"/>
</g>
<!-- 10&#45;&gt;27 -->
<g id="edge53" class="edge">
<title>10&#45;&gt;27</title>
<path fill="none" stroke="#c0c0c0" stroke-width="2" d="M134.2376,-143.9243C174.1561,-131.2069 226.651,-114.4829 262.5309,-103.0521"/>
<polygon fill="#c0c0c0" stroke="#c0c0c0" stroke-width="2" points="263.7204,-106.3466 272.1861,-99.9761 261.5954,-99.6769 263.7204,-106.3466"/>
</g>
<!-- 11&#45;&gt;0 -->
<g id="edge6" class="edge">
<title>11&#45;&gt;0</title>
<path fill="none" stroke="#c0c0c0" stroke-width="2" d="M982.3907,-215.6846C988.0748,-184.7753 995.9925,-120.8525 976.5,-72 972.2585,-61.3699 964.8633,-51.5673 957.0408,-43.3146"/>
<polygon fill="#c0c0c0" stroke="#c0c0c0" stroke-width="2" points="959.3938,-40.7194 949.815,-36.192 954.4798,-45.7047 959.3938,-40.7194"/>
</g>
<!-- 12&#45;&gt;0 -->
<g id="edge21" class="edge">
<title>12&#45;&gt;0</title>
<path fill="none" stroke="#c0c0c0" stroke-width="2" d="M533.8653,-359.7257C523.2979,-332.7325 505.5,-280.3849 505.5,-234 505.5,-234 505.5,-234 505.5,-162 505.5,-108.1855 539.2153,-97.6935 586.5,-72 638.2865,-43.8604 812.0779,-27.0283 889.1513,-20.7825"/>
<polygon fill="#c0c0c0" stroke="#c0c0c0" stroke-width="2" points="889.6707,-24.2524 899.3621,-19.9714 889.1163,-17.2743 889.6707,-24.2524"/>
</g>
<!-- 12&#45;&gt;28 -->
<g id="edge57" class="edge">
<title>12&#45;&gt;28</title>
<path fill="none" stroke="#c0c0c0" stroke-width="2" d="M556.1358,-359.8314C562.8161,-351.5386 570.8568,-341.557 578.1904,-332.4533"/>
<polygon fill="#c0c0c0" stroke="#c0c0c0" stroke-width="2" points="581.1194,-334.3965 584.6671,-324.4133 575.6681,-330.0052 581.1194,-334.3965"/>
</g>
<!-- 13&#45;&gt;0 -->
<g id="edge4" class="edge">
<title>13&#45;&gt;0</title>
<path fill="none" stroke="#c0c0c0" stroke-width="2" d="M1039.6868,-362.8567C1057.8802,-354.1563 1077.9468,-341.4345 1090.5,-324 1114.3879,-290.8235 1109.5,-274.8816 1109.5,-234 1109.5,-234 1109.5,-234 1109.5,-162 1109.5,-88.3192 1016.7477,-46.564 963.3092,-28.6215"/>
<polygon fill="#c0c0c0" stroke="#c0c0c0" stroke-width="2" points="964.0942,-25.1968 953.5023,-25.4469 961.9383,-31.8566 964.0942,-25.1968"/>
</g>
<!-- 14 -->
<g id="node15" class="node">
<title>14</title>
<path fill="none" stroke="#56d8b9" stroke-width="2" d="M1069,-324C1069,-324 1022,-324 1022,-324 1016,-324 1010,-318 1010,-312 1010,-312 1010,-300 1010,-300 1010,-294 1016,-288 1022,-288 1022,-288 1069,-288 1069,-288 1075,-288 1081,-294 1081,-300 1081,-300 1081,-312 1081,-312 1081,-318 1075,-324 1069,-324"/>
<text text-anchor="middle" x="1045.5" y="-303.5" font-family="sans" font-size="10.00" fill="#000000">newickTree</text>
</g>
<!-- 13&#45;&gt;14 -->
<g id="edge36" class="edge">
<title>13&#45;&gt;14</title>
<path fill="none" stroke="#c0c0c0" stroke-width="2" d="M1010.3601,-359.8314C1015.6629,-351.7079 1022.0237,-341.9637 1027.8673,-333.0118"/>
<polygon fill="#c0c0c0" stroke="#c0c0c0" stroke-width="2" points="1030.9448,-334.7003 1033.4802,-324.4133 1025.0831,-330.8739 1030.9448,-334.7003"/>
</g>
<!-- 29 -->
<g id="node30" class="node">
<title>29</title>
<path fill="none" stroke="#56d86b" stroke-width="2" d="M980,-324C980,-324 921,-324 921,-324 915,-324 909,-318 909,-312 909,-312 909,-300 909,-300 909,-294 915,-288 921,-288 921,-288 980,-288 980,-288 986,-288 992,-294 992,-300 992,-300 992,-312 992,-312 992,-318 986,-324 980,-324"/>
<text text-anchor="middle" x="950.5" y="-303.5" font-family="sans" font-size="10.00" fill="#000000">vsearchGTDB</text>
</g>
<!-- 13&#45;&gt;29 -->
<g id="edge58" class="edge">
<title>13&#45;&gt;29</title>
<path fill="none" stroke="#c0c0c0" stroke-width="2" d="M986.3876,-359.8314C980.9719,-351.7079 974.4758,-341.9637 968.5079,-333.0118"/>
<polygon fill="#c0c0c0" stroke="#c0c0c0" stroke-width="2" points="971.2347,-330.7923 962.7755,-324.4133 965.4104,-334.6753 971.2347,-330.7923"/>
</g>
<!-- 14&#45;&gt;0 -->
<g id="edge19" class="edge">
<title>14&#45;&gt;0</title>
<path fill="none" stroke="#c0c0c0" stroke-width="2" d="M1048.2922,-287.9903C1053.7907,-246.0676 1061.7784,-140.3331 1015.5,-72 1002.9863,-53.5227 981.8389,-40.307 963.2976,-31.5759"/>
<polygon fill="#c0c0c0" stroke="#c0c0c0" stroke-width="2" points="964.4596,-28.2627 953.8988,-27.4147 961.6258,-34.6635 964.4596,-28.2627"/>
</g>
<!-- 15&#45;&gt;0 -->
<g id="edge10" class="edge">
<title>15&#45;&gt;0</title>
<path fill="none" stroke="#c0c0c0" stroke-width="2" d="M322.459,-362.4932C264.3489,-343.0346 183.5,-303.4775 183.5,-234 183.5,-234 183.5,-234 183.5,-162 183.5,-108.4818 215.6095,-95.8892 263.5,-72 319.5938,-44.0187 757.4455,-24.6576 889.1487,-19.4221"/>
<polygon fill="#c0c0c0" stroke="#c0c0c0" stroke-width="2" points="889.3069,-22.9187 899.1615,-19.0279 889.0315,-15.9241 889.3069,-22.9187"/>
</g>
<!-- 15&#45;&gt;27 -->
<g id="edge52" class="edge">
<title>15&#45;&gt;27</title>
<path fill="none" stroke="#c0c0c0" stroke-width="2" d="M361.7034,-359.9945C329.4236,-327.6145 264.6009,-255.831 240.5,-180 235.6537,-164.7516 233.8143,-158.5362 240.5,-144 245.767,-132.5483 254.7935,-122.6164 264.3942,-114.5032"/>
<polygon fill="#c0c0c0" stroke="#c0c0c0" stroke-width="2" points="266.8185,-117.0498 272.5239,-108.1224 262.4966,-111.5433 266.8185,-117.0498"/>
</g>
<!-- 16 -->
<g id="node17" class="node">
<title>16</title>
<path fill="none" stroke="#56d0d8" stroke-width="2" d="M480,-468C480,-468 421,-468 421,-468 415,-468 409,-462 409,-456 409,-456 409,-444 409,-444 409,-438 415,-432 421,-432 421,-432 480,-432 480,-432 486,-432 492,-438 492,-444 492,-444 492,-456 492,-456 492,-462 486,-468 480,-468"/>
<text text-anchor="middle" x="450.5" y="-447.5" font-family="sans" font-size="10.00" fill="#000000">numSeqParse</text>
</g>
<!-- 16&#45;&gt;15 -->
<g id="edge40" class="edge">
<title>16&#45;&gt;15</title>
<path fill="none" stroke="#c0c0c0" stroke-width="2" d="M432.836,-431.8314C424.5268,-423.2848 414.4736,-412.9443 405.4082,-403.6198"/>
<polygon fill="#c0c0c0" stroke="#c0c0c0" stroke-width="2" points="407.8821,-401.1435 398.4018,-396.4133 402.8631,-406.023 407.8821,-401.1435"/>
</g>
<!-- 17 -->
<g id="node18" class="node">
<title>17</title>
<path fill="none" stroke="#8fd856" stroke-width="2" d="M484,-540C484,-540 421,-540 421,-540 415,-540 409,-534 409,-528 409,-528 409,-516 409,-516 409,-510 415,-504 421,-504 421,-504 484,-504 484,-504 490,-504 496,-510 496,-516 496,-516 496,-528 496,-528 496,-534 490,-540 484,-540"/>
<text text-anchor="middle" x="452.5" y="-519.5" font-family="sans" font-size="10.00" fill="#000000">rawReadCount</text>
</g>
<!-- 17&#45;&gt;16 -->
<g id="edge41" class="edge">
<title>17&#45;&gt;16</title>
<path fill="none" stroke="#c0c0c0" stroke-width="2" d="M451.9953,-503.8314C451.7814,-496.131 451.5271,-486.9743 451.2894,-478.4166"/>
<polygon fill="#c0c0c0" stroke="#c0c0c0" stroke-width="2" points="454.7879,-478.3122 451.0115,-468.4133 447.7906,-478.5066 454.7879,-478.3122"/>
</g>
<!-- 18 -->
<g id="node19" class="node">
<title>18</title>
<path fill="none" stroke="#d88556" stroke-width="2" d="M1622.5,-612C1622.5,-612 1578.5,-612 1578.5,-612 1572.5,-612 1566.5,-606 1566.5,-600 1566.5,-600 1566.5,-588 1566.5,-588 1566.5,-582 1572.5,-576 1578.5,-576 1578.5,-576 1622.5,-576 1622.5,-576 1628.5,-576 1634.5,-582 1634.5,-588 1634.5,-588 1634.5,-600 1634.5,-600 1634.5,-606 1628.5,-612 1622.5,-612"/>
<text text-anchor="middle" x="1600.5" y="-591.5" font-family="sans" font-size="10.00" fill="#000000">multiqcFilt</text>
</g>
<!-- 18&#45;&gt;0 -->
<g id="edge3" class="edge">
<title>18&#45;&gt;0</title>
<path fill="none" stroke="#c0c0c0" stroke-width="2" d="M1602.7792,-575.8486C1606.0012,-548.5755 1611.5,-495.3818 1611.5,-450 1611.5,-450 1611.5,-450 1611.5,-162 1611.5,-113.1738 1590.7912,-96.402 1548.5,-72 1497.8696,-42.7863 1090.9303,-24.464 964.1029,-19.4206"/>
<polygon fill="#c0c0c0" stroke="#c0c0c0" stroke-width="2" points="963.8728,-15.909 953.743,-19.0136 963.5979,-22.9036 963.8728,-15.909"/>
</g>
<!-- 19&#45;&gt;18 -->
<g id="edge42" class="edge">
<title>19&#45;&gt;18</title>
<path fill="none" stroke="#c0c0c0" stroke-width="2" d="M1566.1077,-647.8314C1571.2978,-639.7079 1577.5232,-629.9637 1583.2425,-621.0118"/>
<polygon fill="#c0c0c0" stroke="#c0c0c0" stroke-width="2" points="1586.3015,-622.7246 1588.736,-612.4133 1580.4026,-618.9559 1586.3015,-622.7246"/>
</g>
<!-- 20 -->
<g id="node21" class="node">
<title>20</title>
<path fill="none" stroke="#d8c356" stroke-width="2" d="M817.5,-108C817.5,-108 767.5,-108 767.5,-108 761.5,-108 755.5,-102 755.5,-96 755.5,-96 755.5,-84 755.5,-84 755.5,-78 761.5,-72 767.5,-72 767.5,-72 817.5,-72 817.5,-72 823.5,-72 829.5,-78 829.5,-84 829.5,-84 829.5,-96 829.5,-96 829.5,-102 823.5,-108 817.5,-108"/>
<text text-anchor="middle" x="792.5" y="-87.5" font-family="sans" font-size="10.00" fill="#000000">multiqcRaw</text>
</g>
<!-- 20&#45;&gt;0 -->
<g id="edge7" class="edge">
<title>20&#45;&gt;0</title>
<path fill="none" stroke="#c0c0c0" stroke-width="2" d="M826.3139,-71.8314C845.858,-61.33 870.4424,-48.1205 890.3665,-37.415"/>
<polygon fill="#c0c0c0" stroke="#c0c0c0" stroke-width="2" points="892.2913,-40.3541 899.4436,-32.5378 888.978,-34.1879 892.2913,-40.3541"/>
</g>
<!-- 21 -->
<g id="node22" class="node">
<title>21</title>
<path fill="none" stroke="#d85656" stroke-width="2" d="M823.5,-180C823.5,-180 779.5,-180 779.5,-180 773.5,-180 767.5,-174 767.5,-168 767.5,-168 767.5,-156 767.5,-156 767.5,-150 773.5,-144 779.5,-144 779.5,-144 823.5,-144 823.5,-144 829.5,-144 835.5,-150 835.5,-156 835.5,-156 835.5,-168 835.5,-168 835.5,-174 829.5,-180 823.5,-180"/>
<text text-anchor="middle" x="801.5" y="-159.5" font-family="sans" font-size="10.00" fill="#000000">fastqcRaw</text>
</g>
<!-- 21&#45;&gt;20 -->
<g id="edge44" class="edge">
<title>21&#45;&gt;20</title>
<path fill="none" stroke="#c0c0c0" stroke-width="2" d="M799.2289,-143.8314C798.2664,-136.131 797.1218,-126.9743 796.0521,-118.4166"/>
<polygon fill="#c0c0c0" stroke="#c0c0c0" stroke-width="2" points="799.5151,-117.9019 794.8017,-108.4133 792.5691,-118.7702 799.5151,-117.9019"/>
</g>
<!-- 22 -->
<g id="node23" class="node">
<title>22</title>
<path fill="none" stroke="#d8b456" stroke-width="2" d="M1509,-108C1509,-108 1426,-108 1426,-108 1420,-108 1414,-102 1414,-96 1414,-96 1414,-84 1414,-84 1414,-78 1420,-72 1426,-72 1426,-72 1509,-72 1509,-72 1515,-72 1521,-78 1521,-84 1521,-84 1521,-96 1521,-96 1521,-102 1515,-108 1509,-108"/>
<text text-anchor="middle" x="1467.5" y="-87.5" font-family="sans" font-size="10.00" fill="#000000">seqkit_counts_raw</text>
</g>
<!-- 22&#45;&gt;0 -->
<g id="edge5" class="edge">
<title>22&#45;&gt;0</title>
<path fill="none" stroke="#c0c0c0" stroke-width="2" d="M1413.8426,-75.0268C1409.0129,-73.9127 1404.1804,-72.8818 1399.5,-72 1238.7881,-41.7211 1043.9405,-25.9888 963.734,-20.405"/>
<polygon fill="#c0c0c0" stroke="#c0c0c0" stroke-width="2" points="963.8531,-16.9051 953.6374,-19.7139 963.375,-23.8887 963.8531,-16.9051"/>
</g>
<!-- 23 -->
<g id="node24" class="node">
<title>23</title>
<path fill="none" stroke="#56d88a" stroke-width="2" d="M1432,-252C1432,-252 1361,-252 1361,-252 1355,-252 1349,-246 1349,-240 1349,-240 1349,-228 1349,-228 1349,-222 1355,-216 1361,-216 1361,-216 1432,-216 1432,-216 1438,-216 1444,-222 1444,-228 1444,-228 1444,-240 1444,-240 1444,-246 1438,-252 1432,-252"/>
<text text-anchor="middle" x="1396.5" y="-231.5" font-family="sans" font-size="10.00" fill="#000000">random_sample</text>
</g>
<!-- 23&#45;&gt;0 -->
<g id="edge17" class="edge">
<title>23&#45;&gt;0</title>
<path fill="none" stroke="#c0c0c0" stroke-width="2" d="M1399.3123,-215.7433C1403.3745,-181.9404 1406.499,-109.6308 1366.5,-72 1337.3329,-44.5598 1064.749,-26.0442 963.8357,-20.0796"/>
<polygon fill="#c0c0c0" stroke="#c0c0c0" stroke-width="2" points="963.9721,-16.5817 953.7854,-19.4937 963.5647,-23.5699 963.9721,-16.5817"/>
</g>
<!-- 23&#45;&gt;22 -->
<g id="edge45" class="edge">
<title>23&#45;&gt;22</title>
<path fill="none" stroke="#c0c0c0" stroke-width="2" d="M1405.4922,-215.7623C1417.7623,-190.8764 1439.8483,-146.0822 1454.0808,-117.2165"/>
<polygon fill="#c0c0c0" stroke="#c0c0c0" stroke-width="2" points="1457.2977,-118.6065 1458.5808,-108.0896 1451.0194,-115.5109 1457.2977,-118.6065"/>
</g>
<!-- 23&#45;&gt;24 -->
<g id="edge46" class="edge">
<title>23&#45;&gt;24</title>
<path fill="none" stroke="#c0c0c0" stroke-width="2" d="M1362.1815,-215.8314C1344.4641,-206.4516 1322.6655,-194.9112 1303.8016,-184.9244"/>
<polygon fill="#c0c0c0" stroke="#c0c0c0" stroke-width="2" points="1305.2831,-181.7485 1294.8076,-180.1628 1302.0078,-187.935 1305.2831,-181.7485"/>
</g>
<!-- 23&#45;&gt;25 -->
<g id="edge48" class="edge">
<title>23&#45;&gt;25</title>
<path fill="none" stroke="#c0c0c0" stroke-width="2" d="M1427.0334,-215.8314C1442.5101,-206.6221 1461.4869,-195.3301 1478.0563,-185.4706"/>
<polygon fill="#c0c0c0" stroke="#c0c0c0" stroke-width="2" points="1480.1724,-188.2843 1486.9764,-180.1628 1476.5929,-182.2687 1480.1724,-188.2843"/>
</g>
<!-- 24&#45;&gt;0 -->
<g id="edge16" class="edge">
<title>24&#45;&gt;0</title>
<path fill="none" stroke="#c0c0c0" stroke-width="2" d="M1241.5185,-143.7787C1215.4429,-118.8993 1170.7111,-76.817 1161.5,-72 1097.046,-38.2936 1011.8301,-25.466 963.7261,-20.7026"/>
<polygon fill="#c0c0c0" stroke="#c0c0c0" stroke-width="2" points="964.0398,-17.2168 953.7595,-19.7793 963.394,-24.1869 964.0398,-17.2168"/>
</g>
<!-- 26 -->
<g id="node27" class="node">
<title>26</title>
<path fill="none" stroke="#70d856" stroke-width="2" d="M1345.5,-108C1345.5,-108 1225.5,-108 1225.5,-108 1219.5,-108 1213.5,-102 1213.5,-96 1213.5,-96 1213.5,-84 1213.5,-84 1213.5,-78 1219.5,-72 1225.5,-72 1225.5,-72 1345.5,-72 1345.5,-72 1351.5,-72 1357.5,-78 1357.5,-84 1357.5,-84 1357.5,-96 1357.5,-96 1357.5,-102 1351.5,-108 1345.5,-108"/>
<text text-anchor="middle" x="1285.5" y="-87.5" font-family="sans" font-size="10.00" fill="#000000">reads_Length_Distribution</text>
</g>
<!-- 24&#45;&gt;26 -->
<g id="edge50" class="edge">
<title>24&#45;&gt;26</title>
<path fill="none" stroke="#c0c0c0" stroke-width="2" d="M1266.8086,-143.8314C1269.5117,-136.0463 1272.7316,-126.7729 1275.731,-118.1347"/>
<polygon fill="#c0c0c0" stroke="#c0c0c0" stroke-width="2" points="1279.1327,-119.0081 1279.1065,-108.4133 1272.52,-116.7119 1279.1327,-119.0081"/>
</g>
<!-- 25&#45;&gt;0 -->
<g id="edge23" class="edge">
<title>25&#45;&gt;0</title>
<path fill="none" stroke="#c0c0c0" stroke-width="2" d="M1527.5729,-143.9842C1537.3396,-123.827 1548.2932,-91.4549 1530.5,-72 1492.183,-30.1044 1089.5862,-20.4724 963.8207,-18.4784"/>
<polygon fill="#c0c0c0" stroke="#c0c0c0" stroke-width="2" points="963.5973,-14.9747 953.5454,-18.3229 963.4913,-21.9739 963.5973,-14.9747"/>
</g>
<!-- 26&#45;&gt;0 -->
<g id="edge12" class="edge">
<title>26&#45;&gt;0</title>
<path fill="none" stroke="#c0c0c0" stroke-width="2" d="M1213.2509,-74.8177C1208.5986,-73.8588 1203.9843,-72.9128 1199.5,-72 1115.1697,-54.8349 1016.0237,-35.4133 963.5071,-25.1856"/>
<polygon fill="#c0c0c0" stroke="#c0c0c0" stroke-width="2" points="964.1282,-21.7409 953.6437,-23.2661 962.7909,-28.612 964.1282,-21.7409"/>
</g>
<!-- 27&#45;&gt;0 -->
<g id="edge11" class="edge">
<title>27&#45;&gt;0</title>
<path fill="none" stroke="#c0c0c0" stroke-width="2" d="M334.8714,-82.3132C350.3371,-78.7501 369.3142,-74.7138 386.5,-72 574.3012,-42.3447 801.5654,-25.8883 889.384,-20.249"/>
<polygon fill="#c0c0c0" stroke="#c0c0c0" stroke-width="2" points="889.6318,-23.7404 899.3903,-19.6148 889.1889,-16.7544 889.6318,-23.7404"/>
</g>
<!-- 28&#45;&gt;0 -->
<g id="edge22" class="edge">
<title>28&#45;&gt;0</title>
<path fill="none" stroke="#c0c0c0" stroke-width="2" d="M587.5954,-287.8807C568.7516,-256.7139 536.7065,-191.7106 562.5,-144 590.288,-92.6001 618.5581,-94.4587 672.5,-72 745.7431,-41.5052 838.3177,-27.4182 889.0337,-21.5912"/>
<polygon fill="#c0c0c0" stroke="#c0c0c0" stroke-width="2" points="889.6426,-25.0454 899.1986,-20.4703 888.8752,-18.0876 889.6426,-25.0454"/>
</g>
<!-- 30 -->
<g id="node31" class="node">
<title>30</title>
<path fill="none" stroke="#ced856" stroke-width="2" d="M921,-252C921,-252 862,-252 862,-252 856,-252 850,-246 850,-240 850,-240 850,-228 850,-228 850,-222 856,-216 862,-216 862,-216 921,-216 921,-216 927,-216 933,-222 933,-228 933,-228 933,-240 933,-240 933,-246 927,-252 921,-252"/>
<text text-anchor="middle" x="891.5" y="-231.5" font-family="sans" font-size="10.00" fill="#000000">GTDB_NoHITs</text>
</g>
<!-- 28&#45;&gt;30 -->
<g id="edge59" class="edge">
<title>28&#45;&gt;30</title>
<path fill="none" stroke="#c0c0c0" stroke-width="2" d="M665.0305,-289.8418C717.7761,-276.836 790.8992,-258.8057 839.6315,-246.7895"/>
<polygon fill="#c0c0c0" stroke="#c0c0c0" stroke-width="2" points="840.7729,-250.113 849.6441,-244.3206 839.097,-243.3165 840.7729,-250.113"/>
</g>
<!-- 29&#45;&gt;0 -->
<g id="edge15" class="edge">
<title>29&#45;&gt;0</title>
<path fill="none" stroke="#c0c0c0" stroke-width="2" d="M981.9561,-287.9802C994.5312,-278.9479 1007.6389,-266.7662 1014.5,-252 1021.2421,-237.4899 1015.6032,-231.9619 1014.5,-216 1010.045,-151.5394 1026.5399,-128.1111 994.5,-72 986.7865,-58.4914 974.2432,-47.0994 962.017,-38.3124"/>
<polygon fill="#c0c0c0" stroke="#c0c0c0" stroke-width="2" points="963.9078,-35.3658 953.6666,-32.6513 959.9798,-41.1598 963.9078,-35.3658"/>
</g>
<!-- 29&#45;&gt;30 -->
<g id="edge60" class="edge">
<title>29&#45;&gt;30</title>
<path fill="none" stroke="#c0c0c0" stroke-width="2" d="M935.6118,-287.8314C928.747,-279.454 920.4699,-269.3531 912.9489,-260.1749"/>
<polygon fill="#c0c0c0" stroke="#c0c0c0" stroke-width="2" points="915.6341,-257.9297 906.5886,-252.4133 910.2197,-262.3665 915.6341,-257.9297"/>
</g>
<!-- 30&#45;&gt;0 -->
<g id="edge8" class="edge">
<title>30&#45;&gt;0</title>
<path fill="none" stroke="#c0c0c0" stroke-width="2" d="M849.6834,-221.9312C815.2998,-211.1569 770.3764,-194.8336 758.5,-180 728.3154,-142.2994 717.671,-110.747 746.5,-72 763.6008,-49.016 841.9451,-32.154 889.4603,-23.8307"/>
<polygon fill="#c0c0c0" stroke="#c0c0c0" stroke-width="2" points="890.1164,-27.2695 899.3853,-22.1374 888.9391,-20.3692 890.1164,-27.2695"/>
</g>
<!-- 31 -->
<g id="node32" class="node">
<title>31</title>
<path fill="none" stroke="#56d8c9" stroke-width="2" d="M917,-180C917,-180 866,-180 866,-180 860,-180 854,-174 854,-168 854,-168 854,-156 854,-156 854,-150 860,-144 866,-144 866,-144 917,-144 917,-144 923,-144 929,-150 929,-156 929,-156 929,-168 929,-168 929,-174 923,-180 917,-180"/>
<text text-anchor="middle" x="891.5" y="-159.5" font-family="sans" font-size="10.00" fill="#000000">vsearchURE</text>
</g>
<!-- 30&#45;&gt;31 -->
<g id="edge61" class="edge">
<title>30&#45;&gt;31</title>
<path fill="none" stroke="#c0c0c0" stroke-width="2" d="M891.5,-215.8314C891.5,-208.131 891.5,-198.9743 891.5,-190.4166"/>
<polygon fill="#c0c0c0" stroke="#c0c0c0" stroke-width="2" points="895.0001,-190.4132 891.5,-180.4133 888.0001,-190.4133 895.0001,-190.4132"/>
</g>
<!-- 32 -->
<g id="node33" class="node">
<title>32</title>
<path fill="none" stroke="#56d8a9" stroke-width="2" d="M955,-108C955,-108 898,-108 898,-108 892,-108 886,-102 886,-96 886,-96 886,-84 886,-84 886,-78 892,-72 898,-72 898,-72 955,-72 955,-72 961,-72 967,-78 967,-84 967,-84 967,-96 967,-96 967,-102 961,-108 955,-108"/>
<text text-anchor="middle" x="926.5" y="-87.5" font-family="sans" font-size="10.00" fill="#000000">vsearchParse</text>
</g>
<!-- 30&#45;&gt;32 -->
<g id="edge63" class="edge">
<title>30&#45;&gt;32</title>
<path fill="none" stroke="#c0c0c0" stroke-width="2" d="M913.2672,-215.8165C922.9723,-206.2816 933.3597,-193.7355 938.5,-180 945.9706,-160.0378 942.2018,-136.055 936.9823,-117.8679"/>
<polygon fill="#c0c0c0" stroke="#c0c0c0" stroke-width="2" points="940.2643,-116.6383 933.906,-108.1635 933.5916,-118.7537 940.2643,-116.6383"/>
</g>
<!-- 31&#45;&gt;0 -->
<g id="edge20" class="edge">
<title>31&#45;&gt;0</title>
<path fill="none" stroke="#c0c0c0" stroke-width="2" d="M883.3589,-143.8287C876.2319,-125.2242 868.3306,-95.7502 877.5,-72 881.6192,-61.3306 888.9336,-51.4665 896.6749,-43.1681"/>
<polygon fill="#c0c0c0" stroke="#c0c0c0" stroke-width="2" points="899.2348,-45.558 903.825,-36.0091 894.2819,-40.6113 899.2348,-45.558"/>
</g>
<!-- 31&#45;&gt;32 -->
<g id="edge62" class="edge">
<title>31&#45;&gt;32</title>
<path fill="none" stroke="#c0c0c0" stroke-width="2" d="M900.332,-143.8314C904.1986,-135.8771 908.8206,-126.369 913.0968,-117.5723"/>
<polygon fill="#c0c0c0" stroke="#c0c0c0" stroke-width="2" points="916.3249,-118.9371 917.5491,-108.4133 910.0293,-115.8768 916.3249,-118.9371"/>
</g>
<!-- 32&#45;&gt;0 -->
<g id="edge18" class="edge">
<title>32&#45;&gt;0</title>
<path fill="none" stroke="#c0c0c0" stroke-width="2" d="M926.5,-71.8314C926.5,-64.131 926.5,-54.9743 926.5,-46.4166"/>
<polygon fill="#c0c0c0" stroke="#c0c0c0" stroke-width="2" points="930.0001,-46.4132 926.5,-36.4133 923.0001,-46.4133 930.0001,-46.4132"/>
</g>
</g>
</svg>
